Azonix_copie.ufo
<glyph name="exclam" format="2">
	<advance width="225"/>
	<unicode hex="0021"/>
	<note>
		exclam
	</note>
	<outline>
		<contour>
			<point x="50" y="-7" type="line"/>
			<point x="175" y="-7" type="line"/>
			<point x="175" y="118" type="line"/>
			<point x="50" y="118" type="line"/>
		</contour>
		<contour>
			<point x="175" y="693" type="line"/>
			<point x="50" y="693" type="line"/>
			<point x="50" y="525" type="line"/>
			<point x="83" y="169" type="line"/>
			<point x="142" y="169" type="line"/>
			<point x="175" y="525" type="line"/>
		</contour>
	</outline>
</glyph>
<glyph name="quotedbl" format="2">
	<advance width="384"/>
	<unicode hex="0022"/>
	<note>
		quotedbl
	</note>
	<outline>
		<contour>
			<point x="209" y="504" type="line"/>
			<point x="334" y="504" type="line"/>
			<point x="334" y="750" type="line"/>
			<point x="209" y="750" type="line"/>
		</contour>
		<contour>
			<point x="49" y="504" type="line"/>
			<point x="174" y="504" type="line"/>
			<point x="174" y="750" type="line"/>
			<point x="49" y="750" type="line"/>
		</contour>
	</outline>
</glyph>
<glyph name="numbersign" format="2">
	<advance width="803"/>
	<unicode hex="0023"/>
	<note>
		numbersign
	</note>
	<outline>
		<contour>
			<point x="566" y="278" type="line"/>
			<point x="591" y="410" type="line"/>
			<point x="591" y="410" type="line"/>
			<point x="729" y="410" type="line"/>
			<point x="754" y="535" type="line"/>
			<point x="616" y="535" type="line"/>
			<point x="647" y="692" type="line"/>
			<point x="521" y="692" type="line"/>
			<point x="490" y="535" type="line"/>
			<point x="490" y="535" type="line"/>
			<point x="392" y="535" type="line"/>
			<point x="423" y="692" type="line"/>
			<point x="296" y="692" type="line"/>
			<point x="296" y="692" type="line"/>
			<point x="265" y="535" type="line"/>
			<point x="265" y="535" type="line"/>
			<point x="265" y="535" type="line"/>
			<point x="265" y="535" type="line"/>
			<point x="265" y="535" type="line"/>
			<point x="128" y="535" type="line"/>
			<point x="128" y="535" type="line"/>
			<point x="128" y="535" type="line"/>
			<point x="128" y="534" type="line"/>
			<point x="103" y="410" type="line"/>
			<point x="240" y="410" type="line"/>
			<point x="240" y="410" type="line"/>
			<point x="240" y="410" type="line"/>
			<point x="214" y="281" type="line"/>
			<point x="213" y="275" type="line"/>
			<point x="213" y="275" type="line"/>
			<point x="76" y="275" type="line"/>
			<point x="76" y="275" type="line"/>
			<point x="73" y="263" type="line"/>
			<point x="57" y="179" type="line"/>
			<point x="51" y="149" type="line"/>
			<point x="188" y="149" type="line"/>
			<point x="176" y="90" type="line"/>
			<point x="164" y="26" type="line"/>
			<point x="157" y="-8" type="line"/>
			<point x="157" y="-8" type="line"/>
			<point x="157" y="-8" type="line"/>
			<point x="284" y="-8" type="line"/>
			<point x="315" y="149" type="line"/>
			<point x="315" y="149" type="line"/>
			<point x="413" y="149" type="line"/>
			<point x="382" y="-8" type="line"/>
			<point x="382" y="-8" type="line"/>
			<point x="382" y="-8" type="line"/>
			<point x="509" y="-8" type="line"/>
			<point x="540" y="149" type="line"/>
			<point x="540" y="149" type="line"/>
			<point x="678" y="149" type="line"/>
			<point x="679" y="153" type="line"/>
			<point x="703" y="274" type="line"/>
			<point x="565" y="274" type="line"/>
		</contour>
		<contour>
			<point x="466" y="411" type="line"/>
			<point x="465" y="410" type="line"/>
			<point x="439" y="279" type="line"/>
			<point x="438" y="275" type="line"/>
			<point x="341" y="275" type="line"/>
			<point x="342" y="279" type="line"/>
			<point x="368" y="411" type="line"/>
			<point x="368" y="411" type="line"/>
			<point x="466" y="411" type="line"/>
		</contour>
	</outline>
</glyph>
<glyph name="dollar" format="2">
	<advance width="762"/>
	<unicode hex="0024"/>
	<note>
		dollar
	</note>
	<outline>
		<contour>
			<point x="587" y="461" type="line"/>
			<point x="712" y="461" type="line"/>
			<point x="712" y="465" type="line" smooth="yes"/>
			<point x="712" y="569"/>
			<point x="627" y="654"/>
			<point x="523" y="654" type="curve" smooth="yes"/>
			<point x="444" y="654" type="line"/>
			<point x="444" y="789" type="line"/>
			<point x="319" y="789" type="line"/>
			<point x="319" y="654" type="line"/>
			<point x="239" y="654" type="line" smooth="yes"/>
			<point x="135" y="654"/>
			<point x="51" y="569"/>
			<point x="51" y="465" type="curve" smooth="yes"/>
			<point x="51" y="461" type="line" smooth="yes"/>
			<point x="51" y="421"/>
			<point x="63" y="384"/>
			<point x="84" y="354" type="curve" smooth="yes"/>
			<point x="91" y="343"/>
			<point x="99" y="333"/>
			<point x="108" y="324" type="curve" smooth="yes"/>
			<point x="142" y="291"/>
			<point x="188" y="271"/>
			<point x="239" y="271" type="curve" smooth="yes"/>
			<point x="265" y="271" type="line" smooth="yes"/>
			<point x="267" y="271"/>
			<point x="269" y="271"/>
			<point x="271" y="271" type="curve" smooth="yes"/>
			<point x="318" y="271" type="line"/>
			<point x="318" y="139" type="line"/>
			<point x="239" y="139" type="line" smooth="yes"/>
			<point x="204" y="139"/>
			<point x="175" y="168"/>
			<point x="175" y="203" type="curve" smooth="yes"/>
			<point x="175" y="207" type="line"/>
			<point x="50" y="207" type="line"/>
			<point x="50" y="203" type="line" smooth="yes"/>
			<point x="50" y="99"/>
			<point x="135" y="14"/>
			<point x="239" y="14" type="curve" smooth="yes"/>
			<point x="318" y="14" type="line"/>
			<point x="318" y="-112" type="line"/>
			<point x="443" y="-112" type="line"/>
			<point x="443" y="14" type="line"/>
			<point x="523" y="14" type="line" smooth="yes"/>
			<point x="627" y="14"/>
			<point x="711" y="99"/>
			<point x="711" y="203" type="curve" smooth="yes"/>
			<point x="711" y="207" type="line" smooth="yes"/>
			<point x="711" y="247"/>
			<point x="699" y="284"/>
			<point x="678" y="314" type="curve" smooth="yes"/>
			<point x="671" y="325"/>
			<point x="663" y="335"/>
			<point x="654" y="344" type="curve" smooth="yes"/>
			<point x="620" y="377"/>
			<point x="574" y="397"/>
			<point x="523" y="397" type="curve" smooth="yes"/>
			<point x="497" y="397" type="line" smooth="yes"/>
			<point x="495" y="397"/>
			<point x="493" y="397"/>
			<point x="491" y="397" type="curve" smooth="yes"/>
			<point x="444" y="397" type="line"/>
			<point x="444" y="529" type="line"/>
			<point x="523" y="529" type="line" smooth="yes"/>
			<point x="558" y="529"/>
			<point x="587" y="500"/>
			<point x="587" y="465" type="curve" smooth="yes"/>
		</contour>
		<contour>
			<point x="318" y="529" type="line"/>
			<point x="318" y="397" type="line"/>
			<point x="238" y="397" type="line" smooth="yes"/>
			<point x="203" y="397"/>
			<point x="174" y="426"/>
			<point x="174" y="461" type="curve" smooth="yes"/>
			<point x="174" y="465" type="line" smooth="yes"/>
			<point x="174" y="500"/>
			<point x="203" y="529"/>
			<point x="238" y="529" type="curve" smooth="yes"/>
		</contour>
		<contour>
			<point x="443" y="272" type="line"/>
			<point x="523" y="272" type="line" smooth="yes"/>
			<point x="558" y="272"/>
			<point x="587" y="243"/>
			<point x="587" y="208" type="curve" smooth="yes"/>
			<point x="587" y="204" type="line" smooth="yes"/>
			<point x="587" y="169"/>
			<point x="558" y="140"/>
			<point x="523" y="140" type="curve" smooth="yes"/>
			<point x="443" y="140" type="line"/>
		</contour>
	</outline>
</glyph>
<glyph name="percent" format="2">
	<advance width="928"/>
	<unicode hex="0025"/>
	<note>
		percent
	</note>
	<outline>
		<contour>
			<point x="713" y="685" type="line"/>
			<point x="572" y="685" type="line"/>
			<point x="204" y="-15" type="line"/>
			<point x="345" y="-15" type="line"/>
		</contour>
		<contour>
			<point x="699" y="340" type="curve" smooth="yes"/>
			<point x="601" y="340"/>
			<point x="522" y="261"/>
			<point x="522" y="163" type="curve" smooth="yes"/>
			<point x="522" y="65"/>
			<point x="601" y="-14"/>
			<point x="699" y="-14" type="curve" smooth="yes"/>
			<point x="797" y="-14"/>
			<point x="876" y="65"/>
			<point x="876" y="163" type="curve" smooth="yes"/>
			<point x="876" y="261"/>
			<point x="797" y="340"/>
		</contour>
		<contour>
			<point x="699" y="110" type="curve" smooth="yes"/>
			<point x="670" y="110"/>
			<point x="646" y="134"/>
			<point x="646" y="163" type="curve" smooth="yes"/>
			<point x="646" y="192"/>
			<point x="670" y="216"/>
			<point x="699" y="216" type="curve" smooth="yes"/>
			<point x="728" y="216"/>
			<point x="752" y="192"/>
			<point x="752" y="163" type="curve" smooth="yes"/>
			<point x="752" y="134"/>
			<point x="728" y="110"/>
		</contour>
		<contour>
			<point x="404" y="508" type="curve" smooth="yes"/>
			<point x="404" y="606"/>
			<point x="325" y="685"/>
			<point x="227" y="685" type="curve" smooth="yes"/>
			<point x="129" y="685"/>
			<point x="50" y="606"/>
			<point x="50" y="508" type="curve" smooth="yes"/>
			<point x="50" y="410"/>
			<point x="129" y="331"/>
			<point x="227" y="331" type="curve" smooth="yes"/>
			<point x="325" y="331"/>
			<point x="404" y="410"/>
		</contour>
		<contour>
			<point x="174" y="508" type="curve" smooth="yes"/>
			<point x="174" y="537"/>
			<point x="198" y="561"/>
			<point x="227" y="561" type="curve" smooth="yes"/>
			<point x="256" y="561"/>
			<point x="280" y="537"/>
			<point x="280" y="508" type="curve" smooth="yes"/>
			<point x="280" y="479"/>
			<point x="256" y="455"/>
			<point x="227" y="455" type="curve" smooth="yes"/>
			<point x="198" y="455"/>
			<point x="174" y="479"/>
		</contour>
	</outline>
</glyph>
<glyph name="ampersand" format="2">
	<advance width="791"/>
	<unicode hex="0026"/>
	<note>
		ampersand
	</note>
	<outline>
		<contour>
			<point x="742" y="416" type="line"/>
			<point x="256" y="413" type="line" smooth="yes"/>
			<point x="212" y="413"/>
			<point x="175" y="450"/>
			<point x="175" y="495" type="curve" smooth="yes"/>
			<point x="175" y="539"/>
			<point x="212" y="576"/>
			<point x="256" y="576" type="curve" smooth="yes"/>
			<point x="617" y="576" type="line"/>
			<point x="617" y="701" type="line"/>
			<point x="256" y="701" type="line" smooth="yes"/>
			<point x="143" y="701"/>
			<point x="51" y="609"/>
			<point x="51" y="496" type="curve" smooth="yes"/>
			<point x="51" y="440"/>
			<point x="73" y="389"/>
			<point x="109" y="352" type="curve"/>
			<point x="73" y="315"/>
			<point x="51" y="264"/>
			<point x="51" y="208" type="curve" smooth="yes"/>
			<point x="51" y="95"/>
			<point x="143" y="3"/>
			<point x="256" y="3" type="curve" smooth="yes"/>
			<point x="617" y="3" type="line"/>
			<point x="617" y="290" type="line"/>
			<point x="742" y="290" type="line"/>
		</contour>
		<contour>
			<point x="493" y="291" type="line"/>
			<point x="493" y="128" type="line"/>
			<point x="257" y="128" type="line" smooth="yes"/>
			<point x="213" y="128"/>
			<point x="176" y="165"/>
			<point x="176" y="209" type="curve" smooth="yes"/>
			<point x="176" y="254"/>
			<point x="213" y="291"/>
			<point x="257" y="291" type="curve" smooth="yes"/>
		</contour>
	</outline>
</glyph>
<glyph name="parenleft" format="2">
	<advance width="400"/>
	<unicode hex="0028"/>
	<note>
		parenleft
	</note>
	<outline>
		<contour>
			<point x="349" y="742" type="curve"/>
			<point x="350" y="742" type="line"/>
			<point x="194" y="742" type="line"/>
			<point x="79" y="573"/>
			<point x="-64" y="240"/>
			<point x="197" y="-161" type="curve"/>
			<point x="350" y="-161" type="line"/>
			<point x="4" y="292"/>
			<point x="260" y="643"/>
		</contour>
	</outline>
</glyph>
<glyph name="parenright" format="2">
	<advance width="400"/>
	<unicode hex="0029"/>
	<note>
		parenright
	</note>
	<outline>
		<contour>
			<point x="205" y="742" type="curve"/>
			<point x="206" y="742" type="line"/>
			<point x="50" y="742" type="line"/>
			<point x="139" y="643"/>
			<point x="395" y="292"/>
			<point x="49" y="-161" type="curve"/>
			<point x="202" y="-161" type="line"/>
			<point x="463" y="240"/>
			<point x="320" y="573"/>
		</contour>
	</outline>
</glyph>
<glyph name="asterisk" format="2">
	<advance width="387"/>
	<unicode hex="002A"/>
	<note>
		asterisk
	</note>
	<outline>
		<contour>
			<point x="232" y="589" type="curve"/>
			<point x="233" y="589" type="line" smooth="yes"/>
			<point x="268" y="597"/>
			<point x="303" y="605"/>
			<point x="338" y="613" type="curve"/>
			<point x="331" y="635"/>
			<point x="324" y="657"/>
			<point x="317" y="679" type="curve"/>
			<point x="284" y="665"/>
			<point x="251" y="651"/>
			<point x="218" y="637" type="curve"/>
			<point x="221" y="672"/>
			<point x="225" y="707"/>
			<point x="229" y="742" type="curve"/>
			<point x="206" y="742"/>
			<point x="183" y="742"/>
			<point x="160" y="742" type="curve"/>
			<point x="163" y="707"/>
			<point x="166" y="672"/>
			<point x="169" y="637" type="curve"/>
			<point x="169" y="637" type="line"/>
			<point x="136" y="651"/>
			<point x="103" y="665"/>
			<point x="70" y="679" type="curve"/>
			<point x="63" y="657"/>
			<point x="56" y="635"/>
			<point x="49" y="613" type="curve"/>
			<point x="84" y="605"/>
			<point x="119" y="597"/>
			<point x="154" y="589" type="curve"/>
			<point x="131" y="562"/>
			<point x="108" y="535"/>
			<point x="85" y="508" type="curve"/>
			<point x="103" y="495"/>
			<point x="121" y="482"/>
			<point x="139" y="469" type="curve"/>
			<point x="157" y="500"/>
			<point x="175" y="531"/>
			<point x="193" y="562" type="curve"/>
			<point x="211" y="531"/>
			<point x="229" y="500"/>
			<point x="247" y="469" type="curve"/>
			<point x="265" y="482"/>
			<point x="283" y="495"/>
			<point x="301" y="508" type="curve"/>
			<point x="278" y="535"/>
			<point x="255" y="562"/>
		</contour>
	</outline>
</glyph>
<glyph name="plus" format="2">
	<advance width="574"/>
	<unicode hex="002B"/>
	<note>
		plus
	</note>
	<outline>
		<contour>
			<point x="525" y="393" type="line"/>
			<point x="350" y="393" type="line"/>
			<point x="350" y="568" type="line"/>
			<point x="225" y="568" type="line"/>
			<point x="225" y="393" type="line"/>
			<point x="50" y="393" type="line"/>
			<point x="50" y="268" type="line"/>
			<point x="225" y="268" type="line"/>
			<point x="225" y="93" type="line"/>
			<point x="350" y="93" type="line"/>
			<point x="350" y="268" type="line"/>
			<point x="525" y="268" type="line"/>
		</contour>
	</outline>
</glyph>
<glyph name="comma" format="2">
	<advance width="225"/>
	<unicode hex="002C"/>
	<note>
		comma
	</note>
	<outline>
		<contour>
			<point x="174" y="118" type="line"/>
			<point x="50" y="118" type="line"/>
			<point x="50" y="-7" type="line"/>
			<point x="50" y="-7" type="line"/>
			<point x="112" y="-132" type="line"/>
			<point x="174" y="-132" type="line"/>
		</contour>
	</outline>
</glyph>
<glyph name="hyphen" format="2">
	<advance width="574"/>
	<unicode hex="002D"/>
	<note>
		hyphen
	</note>
	<outline>
		<contour>
			<point x="50" y="268" type="line"/>
			<point x="524" y="268" type="line"/>
			<point x="524" y="393" type="line"/>
			<point x="50" y="393" type="line"/>
		</contour>
	</outline>
</glyph>
<glyph name="period" format="2">
	<advance width="225"/>
	<unicode hex="002E"/>
	<note>
		period
	</note>
	<outline>
		<contour>
			<point x="50" y="-7" type="line"/>
			<point x="175" y="-7" type="line"/>
			<point x="175" y="118" type="line"/>
			<point x="50" y="118" type="line"/>
		</contour>
	</outline>
</glyph>
<glyph name="slash" format="2">
	<advance width="428"/>
	<unicode hex="002F"/>
	<note>
		slash
	</note>
	<outline>
		<contour>
			<point x="378" y="685" type="line"/>
			<point x="248" y="685" type="line"/>
			<point x="176" y="430" type="line"/>
			<point x="141" y="305" type="line"/>
			<point x="50" y="-15" type="line"/>
			<point x="180" y="-15" type="line"/>
			<point x="271" y="305" type="line"/>
			<point x="306" y="430" type="line"/>
		</contour>
	</outline>
</glyph>
<glyph name="zero" format="2">
	<advance width="769"/>
	<unicode hex="0030"/>
	<note>
		zero
	</note>
	<outline>
		<contour>
			<point x="276" y="575" type="curve" smooth="yes"/>
			<point x="492" y="575" type="line" smooth="yes"/>
			<point x="548" y="575"/>
			<point x="594" y="529"/>
			<point x="594" y="473" type="curve" smooth="yes"/>
			<point x="594" y="226" type="line" smooth="yes"/>
			<point x="594" y="170"/>
			<point x="548" y="124"/>
			<point x="492" y="124" type="curve" smooth="yes"/>
			<point x="276" y="124" type="line" smooth="yes"/>
			<point x="220" y="124"/>
			<point x="174" y="170"/>
			<point x="174" y="226" type="curve" smooth="yes"/>
			<point x="174" y="473" type="line" smooth="yes"/>
			<point x="174" y="529"/>
			<point x="220" y="575"/>
		</contour>
		<contour>
			<point x="492" y="700" type="curve" smooth="yes"/>
			<point x="276" y="700" type="line" smooth="yes"/>
			<point x="151" y="700"/>
			<point x="50" y="599"/>
			<point x="50" y="474" type="curve" smooth="yes"/>
			<point x="50" y="227" type="line" smooth="yes"/>
			<point x="50" y="102"/>
			<point x="151" y="1"/>
			<point x="276" y="1" type="curve" smooth="yes"/>
			<point x="492" y="1" type="line" smooth="yes"/>
			<point x="617" y="1"/>
			<point x="718" y="102"/>
			<point x="718" y="227" type="curve" smooth="yes"/>
			<point x="718" y="474" type="line" smooth="yes"/>
			<point x="718" y="599"/>
			<point x="617" y="700"/>
		</contour>
	</outline>
</glyph>
<glyph name="one" format="2">
	<advance width="338"/>
	<unicode hex="0031"/>
	<note>
		one
	</note>
	<outline>
		<contour>
			<point x="290" y="467" type="curve"/>
			<point x="288" y="465" type="line"/>
			<point x="288" y="483"/>
			<point x="286" y="500"/>
			<point x="282" y="516" type="curve" smooth="yes"/>
			<point x="278" y="532"/>
			<point x="272" y="548"/>
			<point x="265" y="563" type="curve" smooth="yes"/>
			<point x="244" y="607"/>
			<point x="208" y="643"/>
			<point x="164" y="665" type="curve"/>
			<point x="164" y="665" type="line"/>
			<point x="138" y="678"/>
			<point x="109" y="686"/>
			<point x="79" y="688" type="curve"/>
			<point x="79" y="689" type="line"/>
			<point x="67" y="689" type="line"/>
			<point x="67" y="689"/>
			<point x="67" y="689"/>
			<point x="67" y="689" type="curve"/>
			<point x="67" y="689" type="line"/>
			<point x="52" y="689" type="line"/>
			<point x="52" y="565" type="line"/>
			<point x="68" y="565" type="line" smooth="yes"/>
			<point x="72" y="565"/>
			<point x="76" y="565"/>
			<point x="80" y="565" type="curve" smooth="yes"/>
			<point x="124" y="559"/>
			<point x="159" y="524"/>
			<point x="165" y="480" type="curve"/>
			<point x="165" y="-9" type="line"/>
			<point x="290" y="-9" type="line"/>
			<point x="290" y="467" type="line"/>
			<point x="290" y="467"/>
			<point x="290" y="467"/>
		</contour>
	</outline>
</glyph>
<glyph name="two" format="2">
	<advance width="800"/>
	<unicode hex="0032"/>
	<note>
		two
	</note>
	<outline>
		<contour>
			<point x="747" y="123" type="line"/>
			<point x="175" y="125" type="line"/>
			<point x="175" y="206" type="line" smooth="yes"/>
			<point x="175" y="248"/>
			<point x="207" y="283"/>
			<point x="248" y="287" type="curve"/>
			<point x="544" y="287" type="line" smooth="yes"/>
			<point x="545" y="287"/>
			<point x="546" y="287"/>
			<point x="547" y="287" type="curve" smooth="yes"/>
			<point x="550" y="287" type="line" smooth="yes"/>
			<point x="605" y="289"/>
			<point x="655" y="313"/>
			<point x="691" y="350" type="curve" smooth="yes"/>
			<point x="709" y="368"/>
			<point x="723" y="389"/>
			<point x="733" y="412" type="curve" smooth="yes"/>
			<point x="744" y="437"/>
			<point x="750" y="464"/>
			<point x="750" y="493" type="curve" smooth="yes"/>
			<point x="750" y="607"/>
			<point x="658" y="699"/>
			<point x="544" y="699" type="curve" smooth="yes"/>
			<point x="51" y="699" type="line"/>
			<point x="51" y="574" type="line"/>
			<point x="544" y="574" type="line" smooth="yes"/>
			<point x="589" y="574"/>
			<point x="625" y="537"/>
			<point x="625" y="492" type="curve" smooth="yes"/>
			<point x="625" y="450"/>
			<point x="593" y="415"/>
			<point x="551" y="411" type="curve" smooth="yes"/>
			<point x="548" y="411" type="line"/>
			<point x="248" y="411" type="line"/>
			<point x="166" y="408"/>
			<point x="96" y="357"/>
			<point x="66" y="285" type="curve" smooth="yes"/>
			<point x="55" y="260"/>
			<point x="49" y="233"/>
			<point x="49" y="204" type="curve" smooth="yes"/>
			<point x="49" y="-2" type="line"/>
			<point x="254" y="-2" type="line"/>
			<point x="254" y="-2"/>
			<point x="254" y="-2"/>
			<point x="254" y="-2" type="curve"/>
			<point x="747" y="-2" type="line"/>
		</contour>
	</outline>
</glyph>
<glyph name="three" format="2">
	<advance width="800"/>
	<unicode hex="0033"/>
	<note>
		three
	</note>
	<outline>
		<contour>
			<point x="749" y="488" type="curve"/>
			<point x="750" y="491" type="line"/>
			<point x="750" y="605"/>
			<point x="658" y="697"/>
			<point x="544" y="697" type="curve" smooth="yes"/>
			<point x="51" y="697" type="line"/>
			<point x="51" y="572" type="line"/>
			<point x="544" y="572" type="line" smooth="yes"/>
			<point x="589" y="572"/>
			<point x="626" y="535"/>
			<point x="626" y="490" type="curve" smooth="yes"/>
			<point x="626" y="446"/>
			<point x="591" y="410"/>
			<point x="548" y="408" type="curve" smooth="yes"/>
			<point x="547" y="408"/>
			<point x="546" y="408"/>
			<point x="545" y="408" type="curve" smooth="yes"/>
			<point x="176" y="408" type="line"/>
			<point x="176" y="283" type="line"/>
			<point x="545" y="283" type="line" smooth="yes"/>
			<point x="546" y="283"/>
			<point x="547" y="283"/>
			<point x="548" y="283" type="curve" smooth="yes"/>
			<point x="591" y="281"/>
			<point x="625" y="245"/>
			<point x="625" y="201" type="curve" smooth="yes"/>
			<point x="625" y="156"/>
			<point x="588" y="119"/>
			<point x="543" y="119" type="curve" smooth="yes"/>
			<point x="50" y="119" type="line"/>
			<point x="50" y="-6" type="line"/>
			<point x="543" y="-6" type="line" smooth="yes"/>
			<point x="657" y="-6"/>
			<point x="749" y="86"/>
			<point x="749" y="200" type="curve" smooth="yes"/>
			<point x="749" y="256"/>
			<point x="727" y="307"/>
			<point x="691" y="344" type="curve"/>
			<point x="727" y="381"/>
			<point x="749" y="432"/>
		</contour>
	</outline>
</glyph>
<glyph name="four" format="2">
	<advance width="800"/>
	<unicode hex="0034"/>
	<note>
		four
	</note>
	<outline>
		<contour>
			<point x="749" y="700" type="line"/>
			<point x="625" y="700" type="line"/>
			<point x="625" y="412" type="line"/>
			<point x="256" y="412" type="line" smooth="yes"/>
			<point x="211" y="412"/>
			<point x="174" y="449"/>
			<point x="174" y="494" type="curve" smooth="yes"/>
			<point x="174" y="700" type="line"/>
			<point x="49" y="700" type="line"/>
			<point x="49" y="494" type="line" smooth="yes"/>
			<point x="49" y="414"/>
			<point x="94" y="345"/>
			<point x="161" y="311" type="curve" smooth="yes"/>
			<point x="189" y="296"/>
			<point x="221" y="288"/>
			<point x="255" y="288" type="curve" smooth="yes"/>
			<point x="624" y="288" type="line"/>
			<point x="624" y="0" type="line"/>
			<point x="749" y="0" type="line"/>
		</contour>
	</outline>
</glyph>
<glyph name="five" format="2">
	<advance width="800"/>
	<unicode hex="0035"/>
	<note>
		five
	</note>
	<outline>
		<contour>
			<point x="732" y="284" type="curve"/>
			<point x="733" y="285" type="line"/>
			<point x="703" y="357"/>
			<point x="633" y="408"/>
			<point x="551" y="410" type="curve" smooth="yes"/>
			<point x="548" y="410"/>
			<point x="546" y="410"/>
			<point x="544" y="410" type="curve" smooth="yes"/>
			<point x="175" y="410" type="line"/>
			<point x="175" y="572" type="line"/>
			<point x="691" y="572" type="line"/>
			<point x="691" y="697" type="line"/>
			<point x="50" y="697" type="line"/>
			<point x="50" y="285" type="line"/>
			<point x="552" y="285" type="line"/>
			<point x="593" y="281"/>
			<point x="624" y="246"/>
			<point x="624" y="204" type="curve" smooth="yes"/>
			<point x="624" y="159"/>
			<point x="588" y="122"/>
			<point x="543" y="122" type="curve" smooth="yes"/>
			<point x="50" y="122" type="line"/>
			<point x="50" y="-3" type="line"/>
			<point x="543" y="-3" type="line" smooth="yes"/>
			<point x="657" y="-3"/>
			<point x="749" y="89"/>
			<point x="749" y="203" type="curve" smooth="yes"/>
			<point x="749" y="232"/>
			<point x="743" y="259"/>
		</contour>
	</outline>
</glyph>
<glyph name="six" format="2">
	<advance width="800"/>
	<unicode hex="0036"/>
	<note>
		six
	</note>
	<outline>
		<contour>
			<point x="690" y="353" type="curve"/>
			<point x="691" y="350" type="line"/>
			<point x="691" y="350"/>
			<point x="691" y="350"/>
			<point x="691" y="350" type="curve"/>
			<point x="691" y="350"/>
			<point x="691" y="350"/>
			<point x="691" y="350" type="curve"/>
			<point x="654" y="388"/>
			<point x="603" y="412"/>
			<point x="546" y="413" type="curve" smooth="yes"/>
			<point x="545" y="413" type="line" smooth="yes"/>
			<point x="544" y="413"/>
			<point x="543" y="413"/>
			<point x="542" y="413" type="curve" smooth="yes"/>
			<point x="255" y="413" type="line" smooth="yes"/>
			<point x="254" y="413"/>
			<point x="253" y="413"/>
			<point x="252" y="413" type="curve" smooth="yes"/>
			<point x="251" y="413" type="line" smooth="yes"/>
			<point x="224" y="413"/>
			<point x="197" y="407"/>
			<point x="173" y="397" type="curve"/>
			<point x="173" y="495" type="line" smooth="yes"/>
			<point x="173" y="540"/>
			<point x="210" y="577"/>
			<point x="255" y="577" type="curve" smooth="yes"/>
			<point x="690" y="577" type="line"/>
			<point x="690" y="702" type="line"/>
			<point x="255" y="702" type="line" smooth="yes"/>
			<point x="221" y="702"/>
			<point x="189" y="694"/>
			<point x="161" y="679" type="curve" smooth="yes"/>
			<point x="138" y="667"/>
			<point x="118" y="651"/>
			<point x="101" y="632" type="curve" smooth="yes"/>
			<point x="69" y="596"/>
			<point x="49" y="549"/>
			<point x="49" y="497" type="curve" smooth="yes"/>
			<point x="49" y="210" type="line" smooth="yes"/>
			<point x="49" y="181"/>
			<point x="55" y="154"/>
			<point x="65" y="129" type="curve" smooth="yes"/>
			<point x="96" y="55"/>
			<point x="169" y="3"/>
			<point x="255" y="3" type="curve" smooth="yes"/>
			<point x="542" y="3" type="line" smooth="yes"/>
			<point x="656" y="3"/>
			<point x="748" y="95"/>
			<point x="748" y="209" type="curve" smooth="yes"/>
			<point x="748" y="265"/>
			<point x="726" y="316"/>
		</contour>
		<contour>
			<point x="541" y="128" type="curve" smooth="yes"/>
			<point x="542" y="128" type="line"/>
			<point x="255" y="128" type="line" smooth="yes"/>
			<point x="210" y="128"/>
			<point x="173" y="165"/>
			<point x="173" y="210" type="curve" smooth="yes"/>
			<point x="173" y="254"/>
			<point x="208" y="290"/>
			<point x="251" y="292" type="curve" smooth="yes"/>
			<point x="252" y="292" type="line" smooth="yes"/>
			<point x="253" y="292"/>
			<point x="254" y="292"/>
			<point x="255" y="292" type="curve" smooth="yes"/>
			<point x="542" y="292" type="line" smooth="yes"/>
			<point x="543" y="292"/>
			<point x="544" y="292"/>
			<point x="545" y="292" type="curve" smooth="yes"/>
			<point x="546" y="292" type="line" smooth="yes"/>
			<point x="589" y="290"/>
			<point x="623" y="254"/>
			<point x="623" y="210" type="curve" smooth="yes"/>
			<point x="623" y="165"/>
			<point x="586" y="128"/>
		</contour>
	</outline>
</glyph>
<glyph name="seven" format="2">
	<advance width="677"/>
	<unicode hex="0037"/>
	<note>
		seven
	</note>
	<outline>
		<contour>
			<point x="604" y="576" type="curve"/>
			<point x="604" y="575" type="line"/>
			<point x="583" y="619"/>
			<point x="547" y="655"/>
			<point x="503" y="677" type="curve" smooth="yes"/>
			<point x="473" y="692"/>
			<point x="440" y="700"/>
			<point x="405" y="700" type="curve" smooth="yes"/>
			<point x="50" y="700" type="line"/>
			<point x="50" y="575" type="line"/>
			<point x="417" y="575" type="line"/>
			<point x="461" y="569"/>
			<point x="496" y="534"/>
			<point x="502" y="490" type="curve"/>
			<point x="502" y="1" type="line"/>
			<point x="627" y="1" type="line"/>
			<point x="627" y="478" type="line" smooth="yes"/>
			<point x="627" y="513"/>
			<point x="619" y="546"/>
		</contour>
	</outline>
</glyph>
<glyph name="eight" format="2">
	<advance width="800"/>
	<unicode hex="0038"/>
	<note>
		eight
	</note>
	<outline>
		<contour>
			<point x="693" y="349" type="curve"/>
			<point x="691" y="350" type="line"/>
			<point x="727" y="387"/>
			<point x="749" y="438"/>
			<point x="749" y="494" type="curve" smooth="yes"/>
			<point x="749" y="550"/>
			<point x="727" y="601"/>
			<point x="691" y="638" type="curve" smooth="yes"/>
			<point x="654" y="676"/>
			<point x="603" y="700"/>
			<point x="546" y="701" type="curve" smooth="yes"/>
			<point x="545" y="701"/>
			<point x="544" y="701"/>
			<point x="543" y="701" type="curve" smooth="yes"/>
			<point x="256" y="701" type="line" smooth="yes"/>
			<point x="255" y="701"/>
			<point x="254" y="701"/>
			<point x="253" y="701" type="curve" smooth="yes"/>
			<point x="226" y="701"/>
			<point x="199" y="695"/>
			<point x="175" y="685" type="curve" smooth="yes"/>
			<point x="150" y="674"/>
			<point x="128" y="658"/>
			<point x="109" y="638" type="curve" smooth="yes"/>
			<point x="73" y="601"/>
			<point x="51" y="550"/>
			<point x="51" y="494" type="curve" smooth="yes"/>
			<point x="51" y="465"/>
			<point x="57" y="438"/>
			<point x="67" y="413" type="curve" smooth="yes"/>
			<point x="77" y="389"/>
			<point x="92" y="368"/>
			<point x="110" y="350" type="curve"/>
			<point x="110" y="350"/>
			<point x="110" y="350"/>
			<point x="110" y="350" type="curve"/>
			<point x="74" y="313"/>
			<point x="52" y="262"/>
			<point x="52" y="206" type="curve" smooth="yes"/>
			<point x="52" y="177"/>
			<point x="58" y="150"/>
			<point x="68" y="125" type="curve" smooth="yes"/>
			<point x="99" y="51"/>
			<point x="172" y="-1"/>
			<point x="258" y="-1" type="curve" smooth="yes"/>
			<point x="545" y="-1" type="line" smooth="yes"/>
			<point x="659" y="-1"/>
			<point x="751" y="91"/>
			<point x="751" y="205" type="curve" smooth="yes"/>
			<point x="751" y="261"/>
			<point x="729" y="312"/>
			<point x="693" y="349" type="curve"/>
			<point x="693" y="349"/>
			<point x="693" y="349"/>
		</contour>
		<contour>
			<point x="541" y="123" type="curve"/>
			<point x="545" y="124" type="line"/>
			<point x="258" y="124" type="line" smooth="yes"/>
			<point x="213" y="124"/>
			<point x="176" y="161"/>
			<point x="176" y="206" type="curve" smooth="yes"/>
			<point x="176" y="249"/>
			<point x="210" y="285"/>
			<point x="253" y="287" type="curve" smooth="yes"/>
			<point x="254" y="287"/>
			<point x="255" y="287"/>
			<point x="256" y="287" type="curve" smooth="yes"/>
			<point x="543" y="287" type="line" smooth="yes"/>
			<point x="544" y="287"/>
			<point x="545" y="287"/>
			<point x="546" y="287" type="curve" smooth="yes"/>
			<point x="589" y="285"/>
			<point x="623" y="249"/>
			<point x="623" y="205" type="curve" smooth="yes"/>
			<point x="623" y="160"/>
			<point x="586" y="123"/>
		</contour>
		<contour>
			<point x="540" y="410" type="curve" smooth="yes"/>
			<point x="543" y="410" type="line" smooth="yes"/>
			<point x="542" y="410"/>
			<point x="541" y="410"/>
			<point x="540" y="410" type="curve" smooth="yes"/>
			<point x="253" y="410" type="line" smooth="yes"/>
			<point x="252" y="410"/>
			<point x="251" y="410"/>
			<point x="250" y="410" type="curve" smooth="yes"/>
			<point x="206" y="411"/>
			<point x="170" y="447"/>
			<point x="170" y="491" type="curve" smooth="yes"/>
			<point x="170" y="535"/>
			<point x="205" y="571"/>
			<point x="248" y="573" type="curve"/>
			<point x="543" y="573" type="line"/>
			<point x="586" y="571"/>
			<point x="620" y="535"/>
			<point x="620" y="491" type="curve" smooth="yes"/>
			<point x="620" y="447"/>
			<point x="584" y="411"/>
		</contour>
	</outline>
</glyph>
<glyph name="nine" format="2">
	<advance width="800"/>
	<unicode hex="0039"/>
	<note>
		nine
	</note>
	<outline>
		<contour>
			<point x="734" y="574" type="curve"/>
			<point x="733" y="574" type="line"/>
			<point x="702" y="648"/>
			<point x="629" y="700"/>
			<point x="543" y="700" type="curve" smooth="yes"/>
			<point x="256" y="700" type="line" smooth="yes"/>
			<point x="142" y="700"/>
			<point x="50" y="608"/>
			<point x="50" y="494" type="curve" smooth="yes"/>
			<point x="50" y="438"/>
			<point x="72" y="387"/>
			<point x="108" y="350" type="curve"/>
			<point x="108" y="350"/>
			<point x="108" y="350"/>
			<point x="108" y="350" type="curve"/>
			<point x="145" y="312"/>
			<point x="196" y="288"/>
			<point x="253" y="287" type="curve" smooth="yes"/>
			<point x="254" y="287" type="line" smooth="yes"/>
			<point x="255" y="287"/>
			<point x="256" y="287"/>
			<point x="257" y="287" type="curve" smooth="yes"/>
			<point x="544" y="287" type="line" smooth="yes"/>
			<point x="545" y="287"/>
			<point x="546" y="287"/>
			<point x="547" y="287" type="curve" smooth="yes"/>
			<point x="548" y="287" type="line" smooth="yes"/>
			<point x="575" y="287"/>
			<point x="602" y="293"/>
			<point x="626" y="303" type="curve"/>
			<point x="626" y="205" type="line" smooth="yes"/>
			<point x="626" y="160"/>
			<point x="589" y="123"/>
			<point x="544" y="123" type="curve" smooth="yes"/>
			<point x="109" y="123" type="line"/>
			<point x="109" y="-2" type="line"/>
			<point x="544" y="-2" type="line" smooth="yes"/>
			<point x="578" y="-2"/>
			<point x="610" y="6"/>
			<point x="638" y="21" type="curve" smooth="yes"/>
			<point x="655" y="30"/>
			<point x="670" y="41"/>
			<point x="684" y="54" type="curve" smooth="yes"/>
			<point x="725" y="92"/>
			<point x="750" y="146"/>
			<point x="750" y="206" type="curve" smooth="yes"/>
			<point x="750" y="493" type="line" smooth="yes"/>
			<point x="750" y="522"/>
			<point x="744" y="549"/>
		</contour>
		<contour>
			<point x="257" y="575" type="curve" smooth="yes"/>
			<point x="544" y="575" type="line" smooth="yes"/>
			<point x="589" y="575"/>
			<point x="626" y="538"/>
			<point x="626" y="493" type="curve" smooth="yes"/>
			<point x="626" y="449"/>
			<point x="591" y="413"/>
			<point x="548" y="411" type="curve" smooth="yes"/>
			<point x="547" y="411" type="line" smooth="yes"/>
			<point x="546" y="411"/>
			<point x="545" y="411"/>
			<point x="544" y="411" type="curve" smooth="yes"/>
			<point x="257" y="411" type="line" smooth="yes"/>
			<point x="256" y="411"/>
			<point x="255" y="411"/>
			<point x="254" y="411" type="curve" smooth="yes"/>
			<point x="253" y="411" type="line" smooth="yes"/>
			<point x="210" y="413"/>
			<point x="175" y="449"/>
			<point x="175" y="493" type="curve" smooth="yes"/>
			<point x="175" y="538"/>
			<point x="212" y="575"/>
		</contour>
	</outline>
</glyph>
<glyph name="colon" format="2">
	<advance width="225"/>
	<unicode hex="003A"/>
	<note>
		colon
	</note>
	<outline>
		<contour>
			<point x="50" y="-7" type="line"/>
			<point x="175" y="-7" type="line"/>
			<point x="175" y="118" type="line"/>
			<point x="50" y="118" type="line"/>
		</contour>
		<contour>
			<point x="50" y="375" type="line"/>
			<point x="175" y="375" type="line"/>
			<point x="175" y="500" type="line"/>
			<point x="50" y="500" type="line"/>
		</contour>
	</outline>
</glyph>
<glyph name="semicolon" format="2">
	<advance width="225"/>
	<unicode hex="003B"/>
	<note>
		semicolon
	</note>
	<outline>
		<contour>
			<point x="49" y="118" type="line"/>
			<point x="50" y="-7" type="line"/>
			<point x="50" y="-7" type="line"/>
			<point x="112" y="-132" type="line"/>
			<point x="174" y="-132" type="line"/>
			<point x="174" y="118" type="line"/>
		</contour>
		<contour>
			<point x="49" y="375" type="line"/>
			<point x="174" y="375" type="line"/>
			<point x="174" y="500" type="line"/>
			<point x="49" y="500" type="line"/>
		</contour>
	</outline>
</glyph>
<glyph name="less" format="2">
	<advance width="574"/>
	<unicode hex="003C"/>
	<note>
		less
	</note>
	<outline>
		<contour>
			<point x="350" y="375" type="line"/>
			<point x="414" y="397" type="line"/>
			<point x="525" y="436" type="line"/>
			<point x="525" y="569" type="line"/>
			<point x="350" y="507" type="line"/>
			<point x="225" y="463" type="line"/>
			<point x="50" y="401" type="line"/>
			<point x="50" y="268" type="line"/>
			<point x="225" y="206" type="line"/>
			<point x="350" y="162" type="line"/>
			<point x="525" y="100" type="line"/>
			<point x="525" y="233" type="line"/>
			<point x="414" y="272" type="line"/>
			<point x="350" y="295" type="line"/>
			<point x="237" y="335" type="line"/>
		</contour>
	</outline>
</glyph>
<glyph name="equal" format="2">
	<advance width="574"/>
	<unicode hex="003D"/>
	<note>
		equal
	</note>
	<outline>
		<contour>
			<point x="50" y="367" type="line"/>
			<point x="524" y="367" type="line"/>
			<point x="524" y="492" type="line"/>
			<point x="50" y="492" type="line"/>
		</contour>
		<contour>
			<point x="50" y="156" type="line"/>
			<point x="524" y="156" type="line"/>
			<point x="524" y="281" type="line"/>
			<point x="50" y="281" type="line"/>
		</contour>
	</outline>
</glyph>
<glyph name="greater" format="2">
	<advance width="574"/>
	<unicode hex="003E"/>
	<note>
		greater
	</note>
	<outline>
		<contour>
			<point x="525" y="399" type="line"/>
			<point x="350" y="462" type="line"/>
			<point x="225" y="506" type="line"/>
			<point x="50" y="568" type="line"/>
			<point x="50" y="435" type="line"/>
			<point x="161" y="396" type="line"/>
			<point x="225" y="373" type="line"/>
			<point x="338" y="333" type="line"/>
			<point x="225" y="293" type="line"/>
			<point x="161" y="270" type="line"/>
			<point x="50" y="231" type="line"/>
			<point x="50" y="98" type="line"/>
			<point x="225" y="160" type="line"/>
			<point x="350" y="204" type="line"/>
			<point x="525" y="266" type="line"/>
		</contour>
	</outline>
</glyph>
<glyph name="question" format="2">
	<advance width="762"/>
	<unicode hex="003F"/>
	<note>
		question
	</note>
	<outline>
		<contour>
			<point x="318" y="-7" type="line"/>
			<point x="443" y="-7" type="line"/>
			<point x="443" y="118" type="line"/>
			<point x="318" y="118" type="line"/>
		</contour>
		<contour>
			<point x="688" y="570" type="curve"/>
			<point x="688" y="568" type="line"/>
			<point x="652" y="642"/>
			<point x="576" y="693"/>
			<point x="488" y="693" type="curve" smooth="yes"/>
			<point x="273" y="693" type="line" smooth="yes"/>
			<point x="185" y="693"/>
			<point x="109" y="642"/>
			<point x="73" y="568" type="curve" smooth="yes"/>
			<point x="58" y="538"/>
			<point x="50" y="505"/>
			<point x="50" y="470" type="curve"/>
			<point x="175" y="470" type="line"/>
			<point x="175" y="524"/>
			<point x="219" y="568"/>
			<point x="273" y="568" type="curve" smooth="yes"/>
			<point x="488" y="568" type="line" smooth="yes"/>
			<point x="542" y="568"/>
			<point x="586" y="524"/>
			<point x="586" y="470" type="curve" smooth="yes"/>
			<point x="586" y="416"/>
			<point x="542" y="372"/>
			<point x="488" y="372" type="curve" smooth="yes"/>
			<point x="318" y="372" type="line"/>
			<point x="318" y="170" type="line"/>
			<point x="443" y="170" type="line"/>
			<point x="443" y="248" type="line"/>
			<point x="488" y="248" type="line" smooth="yes"/>
			<point x="611" y="248"/>
			<point x="711" y="348"/>
			<point x="711" y="471" type="curve" smooth="yes"/>
			<point x="711" y="506"/>
			<point x="703" y="540"/>
		</contour>
	</outline>
</glyph>
<glyph name="at" format="2">
	<advance width="800"/>
	<unicode hex="0040"/>
	<note>
		at
	</note>
	<outline>
		<contour>
			<point x="749" y="694" type="line"/>
			<point x="400" y="693" type="line" smooth="yes"/>
			<point x="207" y="693"/>
			<point x="50" y="536"/>
			<point x="50" y="343" type="curve" smooth="yes"/>
			<point x="50" y="150"/>
			<point x="207" y="-7"/>
			<point x="400" y="-7" type="curve" smooth="yes"/>
			<point x="750" y="-7" type="line"/>
			<point x="750" y="118" type="line"/>
			<point x="400" y="118" type="line" smooth="yes"/>
			<point x="276" y="118"/>
			<point x="175" y="219"/>
			<point x="175" y="343" type="curve" smooth="yes"/>
			<point x="175" y="467"/>
			<point x="276" y="568"/>
			<point x="400" y="568" type="curve" smooth="yes"/>
			<point x="625" y="568" type="line"/>
			<point x="625" y="368" type="line"/>
			<point x="500" y="368" type="line"/>
			<point x="500" y="444" type="line"/>
			<point x="400" y="444" type="line"/>
			<point x="400" y="444" type="line"/>
			<point x="400" y="444"/>
			<point x="400" y="444"/>
			<point x="400" y="444" type="curve"/>
			<point x="345" y="444"/>
			<point x="300" y="399"/>
			<point x="300" y="344" type="curve" smooth="yes"/>
			<point x="300" y="289"/>
			<point x="345" y="244"/>
			<point x="400" y="244" type="curve"/>
			<point x="400" y="244"/>
			<point x="400" y="244"/>
			<point x="400" y="244" type="curve"/>
			<point x="400" y="244" type="line"/>
			<point x="749" y="244" type="line"/>
		</contour>
	</outline>
</glyph>
<glyph name="A" format="2">
	<advance width="735"/>
	<unicode hex="0041"/>
	<unicode hex="00C0"/>
	<unicode hex="00C1"/>
	<unicode hex="00C2"/>
	<unicode hex="00C3"/>
	<unicode hex="00C4"/>
	<unicode hex="00C5"/>
	<note>
		A
	</note>
	<outline>
		<contour>
			<point x="725" y="0" type="line"/>
			<point x="661" y="125" type="line"/>
			<point x="368" y="700" type="line"/>
			<point x="75" y="125" type="line"/>
			<point x="11" y="0" type="line"/>
			<point x="151" y="0" type="line"/>
			<point x="215" y="125" type="line"/>
			<point x="368" y="425" type="line"/>
			<point x="521" y="125" type="line"/>
			<point x="585" y="0" type="line"/>
		</contour>
	</outline>
</glyph>
<glyph name="C" format="2">
	<advance width="790"/>
	<unicode hex="0043"/>
	<unicode hex="00C7"/>
	<note>
		C
	</note>
	<outline>
		<contour>
			<point x="390" y="575" type="curve" smooth="yes"/>
			<point x="740" y="575" type="line"/>
			<point x="740" y="700" type="line"/>
			<point x="390" y="700" type="line" smooth="yes"/>
			<point x="197" y="700"/>
			<point x="40" y="543"/>
			<point x="40" y="350" type="curve" smooth="yes"/>
			<point x="40" y="157"/>
			<point x="197" y="0"/>
			<point x="390" y="0" type="curve" smooth="yes"/>
			<point x="740" y="0" type="line"/>
			<point x="740" y="125" type="line"/>
			<point x="390" y="125" type="line" smooth="yes"/>
			<point x="266" y="125"/>
			<point x="165" y="226"/>
			<point x="165" y="350" type="curve" smooth="yes"/>
			<point x="165" y="474"/>
			<point x="266" y="575"/>
		</contour>
	</outline>
</glyph>
<glyph name="E" format="2">
	<advance width="800"/>
	<unicode hex="0045"/>
	<unicode hex="00C8"/>
	<unicode hex="00C9"/>
	<unicode hex="00CA"/>
	<unicode hex="00CB"/>
	<note>
		E
	</note>
	<outline>
		<contour>
			<point x="239" y="575" type="curve" smooth="yes"/>
			<point x="750" y="575" type="line"/>
			<point x="750" y="700" type="line"/>
			<point x="239" y="700" type="line" smooth="yes"/>
			<point x="135" y="700"/>
			<point x="51" y="615"/>
			<point x="51" y="511" type="curve" smooth="yes"/>
			<point x="51" y="189" type="line" smooth="yes"/>
			<point x="51" y="85"/>
			<point x="135" y="0"/>
			<point x="239" y="0" type="curve" smooth="yes"/>
			<point x="750" y="0" type="line"/>
			<point x="750" y="125" type="line"/>
			<point x="239" y="125" type="line" smooth="yes"/>
			<point x="204" y="125"/>
			<point x="175" y="154"/>
			<point x="175" y="189" type="curve" smooth="yes"/>
			<point x="175" y="321" type="line"/>
			<point x="625" y="321" type="line"/>
			<point x="625" y="446" type="line"/>
			<point x="175" y="446" type="line"/>
			<point x="175" y="511" type="line" smooth="yes"/>
			<point x="175" y="546"/>
			<point x="204" y="575"/>
		</contour>
	</outline>
</glyph>
<glyph name="F" format="2">
	<advance width="800"/>
	<unicode hex="0046"/>
	<note>
		F
	</note>
	<outline>
		<contour>
			<point x="751" y="700" type="line"/>
			<point x="239" y="700" type="line" smooth="yes"/>
			<point x="135" y="700"/>
			<point x="51" y="615"/>
			<point x="51" y="511" type="curve" smooth="yes"/>
			<point x="51" y="0" type="line"/>
			<point x="175" y="0" type="line"/>
			<point x="175" y="321" type="line"/>
			<point x="626" y="321" type="line"/>
			<point x="626" y="446" type="line"/>
			<point x="176" y="446" type="line"/>
			<point x="176" y="511" type="line" smooth="yes"/>
			<point x="176" y="546"/>
			<point x="205" y="575"/>
			<point x="240" y="575" type="curve" smooth="yes"/>
			<point x="751" y="575" type="line"/>
		</contour>
	</outline>
</glyph>
<glyph name="G" format="2">
	<advance width="800"/>
	<unicode hex="0047"/>
	<note>
		G
	</note>
	<outline>
		<contour>
			<point x="400" y="575" type="curve" smooth="yes"/>
			<point x="750" y="575" type="line"/>
			<point x="750" y="700" type="line"/>
			<point x="400" y="700" type="line" smooth="yes"/>
			<point x="207" y="700"/>
			<point x="50" y="543"/>
			<point x="50" y="350" type="curve" smooth="yes"/>
			<point x="50" y="157"/>
			<point x="207" y="0"/>
			<point x="400" y="0" type="curve" smooth="yes"/>
			<point x="750" y="0" type="line"/>
			<point x="750" y="384" type="line"/>
			<point x="400" y="384" type="line"/>
			<point x="400" y="259" type="line"/>
			<point x="625" y="259" type="line"/>
			<point x="625" y="125" type="line"/>
			<point x="400" y="125" type="line" smooth="yes"/>
			<point x="276" y="125"/>
			<point x="175" y="226"/>
			<point x="175" y="350" type="curve" smooth="yes"/>
			<point x="175" y="474"/>
			<point x="276" y="575"/>
		</contour>
	</outline>
</glyph>
<glyph name="H" format="2">
	<advance width="800"/>
	<unicode hex="0048"/>
	<note>
		H
	</note>
	<outline>
		<contour>
			<point x="750" y="700" type="line"/>
			<point x="625" y="700" type="line"/>
			<point x="625" y="446" type="line"/>
			<point x="175" y="446" type="line"/>
			<point x="175" y="700" type="line"/>
			<point x="50" y="700" type="line"/>
			<point x="50" y="0" type="line"/>
			<point x="175" y="0" type="line"/>
			<point x="175" y="321" type="line"/>
			<point x="625" y="321" type="line"/>
			<point x="625" y="0" type="line"/>
			<point x="750" y="0" type="line"/>
		</contour>
	</outline>
</glyph>
<glyph name="I" format="2">
	<advance width="225"/>
	<unicode hex="0049"/>
	<unicode hex="00CC"/>
	<unicode hex="00CD"/>
	<unicode hex="00CE"/>
	<unicode hex="00CF"/>
	<note>
		I
	</note>
	<outline>
		<contour>
			<point x="50" y="0" type="line"/>
			<point x="175" y="0" type="line"/>
			<point x="175" y="700" type="line"/>
			<point x="50" y="700" type="line"/>
		</contour>
	</outline>
</glyph>
<glyph name="L" format="2">
	<advance width="677"/>
	<unicode hex="004C"/>
	<note>
		L
	</note>
	<outline>
		<contour>
			<point x="627" y="124" type="line"/>
			<point x="260" y="125" type="line"/>
			<point x="216" y="131"/>
			<point x="181" y="166"/>
			<point x="175" y="210" type="curve"/>
			<point x="175" y="699" type="line"/>
			<point x="50" y="699" type="line"/>
			<point x="50" y="222" type="line" smooth="yes"/>
			<point x="50" y="187"/>
			<point x="58" y="154"/>
			<point x="73" y="124" type="curve" smooth="yes"/>
			<point x="94" y="80"/>
			<point x="130" y="44"/>
			<point x="174" y="22" type="curve" smooth="yes"/>
			<point x="204" y="7"/>
			<point x="237" y="-1"/>
			<point x="272" y="-1" type="curve" smooth="yes"/>
			<point x="627" y="-1" type="line"/>
		</contour>
	</outline>
</glyph>
<glyph name="M" format="2">
	<advance width="800"/>
	<unicode hex="004D"/>
	<note>
		M
	</note>
	<outline>
		<contour>
			<point x="750" y="700" type="line"/>
			<point x="625" y="604" type="line"/>
			<point x="400" y="431" type="line"/>
			<point x="175" y="604" type="line"/>
			<point x="50" y="700" type="line"/>
			<point x="50" y="0" type="line"/>
			<point x="175" y="0" type="line"/>
			<point x="175" y="446" type="line"/>
			<point x="298" y="352" type="line"/>
			<point x="400" y="273" type="line"/>
			<point x="502" y="352" type="line"/>
			<point x="625" y="446" type="line"/>
			<point x="625" y="0" type="line"/>
			<point x="750" y="0" type="line"/>
		</contour>
	</outline>
</glyph>
<glyph name="N" format="2">
	<advance width="800"/>
	<unicode hex="004E"/>
	<unicode hex="00D1"/>
	<note>
		N
	</note>
	<outline>
		<contour>
			<point x="750" y="699" type="line"/>
			<point x="625" y="700" type="line"/>
			<point x="625" y="254" type="line"/>
			<point x="175" y="601" type="line"/>
			<point x="50" y="697" type="line"/>
			<point x="50" y="-1" type="line"/>
			<point x="175" y="-1" type="line"/>
			<point x="175" y="442" type="line"/>
			<point x="625" y="95" type="line"/>
			<point x="750" y="-1" type="line"/>
		</contour>
	</outline>
</glyph>
<glyph name="O" format="2">
	<advance width="750"/>
	<unicode hex="004F"/>
	<unicode hex="00D2"/>
	<unicode hex="00D3"/>
	<unicode hex="00D4"/>
	<unicode hex="00D5"/>
	<unicode hex="00D6"/>
	<unicode hex="00D8"/>
	<note>
		O
	</note>
	<outline>
		<contour>
			<point x="375" y="700" type="curve" smooth="yes"/>
			<point x="182" y="700"/>
			<point x="25" y="543"/>
			<point x="25" y="350" type="curve" smooth="yes"/>
			<point x="25" y="157"/>
			<point x="182" y="0"/>
			<point x="375" y="0" type="curve" smooth="yes"/>
			<point x="568" y="0"/>
			<point x="725" y="157"/>
			<point x="725" y="350" type="curve" smooth="yes"/>
			<point x="725" y="543"/>
			<point x="568" y="700"/>
		</contour>
		<contour>
			<point x="375" y="125" type="curve" smooth="yes"/>
			<point x="251" y="125"/>
			<point x="150" y="226"/>
			<point x="150" y="350" type="curve" smooth="yes"/>
			<point x="150" y="474"/>
			<point x="251" y="575"/>
			<point x="375" y="575" type="curve" smooth="yes"/>
			<point x="499" y="575"/>
			<point x="600" y="474"/>
			<point x="600" y="350" type="curve" smooth="yes"/>
			<point x="600" y="226"/>
			<point x="499" y="125"/>
		</contour>
	</outline>
</glyph>
<glyph name="P" format="2">
	<advance width="730"/>
	<unicode hex="0050"/>
	<note>
		P
	</note>
	<outline>
		<contour>
			<point x="626" y="643" type="curve"/>
			<point x="625" y="645" type="line"/>
			<point x="591" y="679"/>
			<point x="544" y="700"/>
			<point x="492" y="700" type="curve" smooth="yes"/>
			<point x="51" y="700" type="line"/>
			<point x="51" y="700" type="line"/>
			<point x="51" y="700" type="line"/>
			<point x="51" y="0" type="line"/>
			<point x="176" y="0" type="line"/>
			<point x="176" y="322" type="line"/>
			<point x="511" y="322" type="line"/>
			<point x="511" y="323" type="line"/>
			<point x="513" y="323"/>
			<point x="515" y="323"/>
			<point x="517" y="323" type="curve" smooth="yes"/>
			<point x="536" y="325"/>
			<point x="554" y="330"/>
			<point x="571" y="338" type="curve" smooth="yes"/>
			<point x="636" y="368"/>
			<point x="681" y="434"/>
			<point x="681" y="510" type="curve" smooth="yes"/>
			<point x="681" y="562"/>
			<point x="660" y="609"/>
		</contour>
		<contour>
			<point x="519" y="452" type="curve"/>
			<point x="519" y="451" type="line"/>
			<point x="511" y="447"/>
			<point x="502" y="445"/>
			<point x="493" y="445" type="curve" smooth="yes"/>
			<point x="176" y="445" type="line"/>
			<point x="176" y="574" type="line"/>
			<point x="493" y="574" type="line" smooth="yes"/>
			<point x="515" y="574"/>
			<point x="530" y="564"/>
			<point x="538" y="556" type="curve" smooth="yes"/>
			<point x="545" y="549"/>
			<point x="557" y="533"/>
			<point x="557" y="510" type="curve" smooth="yes"/>
			<point x="557" y="485"/>
			<point x="542" y="462"/>
		</contour>
	</outline>
</glyph>
<glyph name="Q" format="2">
	<advance width="800"/>
	<unicode hex="0051"/>
	<note>
		Q
	</note>
	<outline>
		<contour>
			<point x="749" y="350" type="curve"/>
			<point x="750" y="350" type="line"/>
			<point x="750" y="543"/>
			<point x="593" y="700"/>
			<point x="400" y="700" type="curve" smooth="yes"/>
			<point x="207" y="700"/>
			<point x="50" y="543"/>
			<point x="50" y="350" type="curve" smooth="yes"/>
			<point x="50" y="157"/>
			<point x="207" y="0"/>
			<point x="400" y="0" type="curve" smooth="yes"/>
			<point x="401" y="0"/>
			<point x="402" y="0"/>
			<point x="403" y="0" type="curve" smooth="yes"/>
			<point x="749" y="0" type="line"/>
			<point x="749" y="125" type="line"/>
			<point x="667" y="125" type="line"/>
			<point x="718" y="186"/>
			<point x="749" y="264"/>
		</contour>
		<contour>
			<point x="405" y="125" type="curve" smooth="yes"/>
			<point x="399" y="125" type="line"/>
			<point x="399" y="125" type="line"/>
			<point x="275" y="125"/>
			<point x="174" y="226"/>
			<point x="174" y="350" type="curve" smooth="yes"/>
			<point x="174" y="474"/>
			<point x="275" y="575"/>
			<point x="399" y="575" type="curve" smooth="yes"/>
			<point x="523" y="575"/>
			<point x="624" y="474"/>
			<point x="624" y="350" type="curve" smooth="yes"/>
			<point x="624" y="228"/>
			<point x="526" y="128"/>
		</contour>
	</outline>
</glyph>
<glyph name="R" format="2">
	<advance width="730"/>
	<unicode hex="0052"/>
	<note>
		R
	</note>
	<outline>
		<contour>
			<point x="615" y="124" type="line"/>
			<point x="515" y="323" type="line"/>
			<point x="515" y="323"/>
			<point x="515" y="323"/>
			<point x="515" y="323" type="curve"/>
			<point x="534" y="325"/>
			<point x="552" y="330"/>
			<point x="569" y="338" type="curve" smooth="yes"/>
			<point x="634" y="368"/>
			<point x="679" y="434"/>
			<point x="679" y="510" type="curve" smooth="yes"/>
			<point x="679" y="562"/>
			<point x="658" y="609"/>
			<point x="624" y="644" type="curve" smooth="yes"/>
			<point x="590" y="678"/>
			<point x="543" y="699"/>
			<point x="491" y="699" type="curve" smooth="yes"/>
			<point x="49" y="699" type="line"/>
			<point x="49" y="-1" type="line"/>
			<point x="174" y="-1" type="line"/>
			<point x="174" y="321" type="line"/>
			<point x="299" y="321" type="line" smooth="yes"/>
			<point x="344" y="321"/>
			<point x="383" y="297"/>
			<point x="405" y="261" type="curve" smooth="yes"/>
			<point x="408" y="255" type="line"/>
			<point x="475" y="124" type="line"/>
			<point x="539" y="-1" type="line"/>
			<point x="679" y="-1" type="line"/>
		</contour>
		<contour>
			<point x="491" y="446" type="curve" smooth="yes"/>
			<point x="174" y="445" type="line"/>
			<point x="174" y="574" type="line"/>
			<point x="491" y="574" type="line" smooth="yes"/>
			<point x="513" y="574"/>
			<point x="528" y="564"/>
			<point x="536" y="556" type="curve" smooth="yes"/>
			<point x="543" y="549"/>
			<point x="555" y="533"/>
			<point x="555" y="510" type="curve" smooth="yes"/>
			<point x="555" y="485"/>
			<point x="540" y="462"/>
			<point x="517" y="452" type="curve" smooth="yes"/>
			<point x="509" y="448"/>
			<point x="500" y="446"/>
		</contour>
	</outline>
</glyph>
<glyph name="T" format="2">
	<advance width="800"/>
	<unicode hex="0054"/>
	<note>
		T
	</note>
	<outline>
		<contour>
			<point x="749" y="699" type="line"/>
			<point x="50" y="699" type="line"/>
			<point x="50" y="574" type="line"/>
			<point x="337" y="574" type="line"/>
			<point x="337" y="-1" type="line"/>
			<point x="462" y="-1" type="line"/>
			<point x="462" y="574" type="line"/>
			<point x="749" y="574" type="line"/>
		</contour>
	</outline>
</glyph>
<glyph name="U" format="2">
	<advance width="800"/>
	<unicode hex="0055"/>
	<unicode hex="00D9"/>
	<unicode hex="00DA"/>
	<unicode hex="00DB"/>
	<unicode hex="00DC"/>
	<note>
		U
	</note>
	<outline>
		<contour>
			<point x="750" y="700" type="line"/>
			<point x="625" y="700" type="line"/>
			<point x="625" y="350" type="line" smooth="yes"/>
			<point x="625" y="226"/>
			<point x="524" y="125"/>
			<point x="400" y="125" type="curve" smooth="yes"/>
			<point x="276" y="125"/>
			<point x="175" y="226"/>
			<point x="175" y="350" type="curve" smooth="yes"/>
			<point x="175" y="700" type="line"/>
			<point x="50" y="700" type="line"/>
			<point x="50" y="350" type="line" smooth="yes"/>
			<point x="50" y="157"/>
			<point x="207" y="0"/>
			<point x="400" y="0" type="curve" smooth="yes"/>
			<point x="593" y="0"/>
			<point x="750" y="157"/>
			<point x="750" y="350" type="curve" smooth="yes"/>
		</contour>
	</outline>
</glyph>
<glyph name="V" format="2">
	<advance width="735"/>
	<unicode hex="0056"/>
	<note>
		V
	</note>
	<outline>
		<contour>
			<point x="724" y="700" type="line"/>
			<point x="584" y="700" type="line"/>
			<point x="520" y="575" type="line"/>
			<point x="367" y="275" type="line"/>
			<point x="214" y="575" type="line"/>
			<point x="150" y="700" type="line"/>
			<point x="10" y="700" type="line"/>
			<point x="74" y="575" type="line"/>
			<point x="367" y="0" type="line"/>
			<point x="660" y="575" type="line"/>
		</contour>
	</outline>
</glyph>
<glyph name="W" format="2">
	<advance width="978"/>
	<unicode hex="0057"/>
	<note>
		W
	</note>
	<outline>
		<contour>
			<point x="764" y="151" type="line"/>
			<point x="928" y="700" type="line"/>
			<point x="798" y="700" type="line"/>
			<point x="672" y="278" type="line"/>
			<point x="566" y="425" type="line"/>
			<point x="546" y="453" type="line"/>
			<point x="489" y="531" type="line"/>
			<point x="432" y="453" type="line"/>
			<point x="412" y="425" type="line"/>
			<point x="306" y="278" type="line"/>
			<point x="306" y="278" type="line"/>
			<point x="306" y="278" type="line"/>
			<point x="180" y="700" type="line"/>
			<point x="50" y="700" type="line"/>
			<point x="213" y="151" type="line"/>
			<point x="258" y="1" type="line"/>
			<point x="258" y="1" type="line"/>
			<point x="258" y="1" type="line"/>
			<point x="350" y="128" type="line"/>
			<point x="488" y="319" type="line"/>
			<point x="627" y="128" type="line"/>
			<point x="627" y="128" type="line"/>
			<point x="719" y="0" type="line"/>
			<point x="719" y="0" type="line"/>
			<point x="719" y="0" type="line"/>
			<point x="764" y="151" type="line"/>
		</contour>
	</outline>
</glyph>
<glyph name="Y" format="2">
	<advance width="721"/>
	<unicode hex="0059"/>
	<unicode hex="00DD"/>
	<note>
		Y
	</note>
	<outline>
		<contour>
			<point x="710" y="701" type="line"/>
			<point x="553" y="701" type="line"/>
			<point x="361" y="452" type="line"/>
			<point x="169" y="701" type="line"/>
			<point x="11" y="701" type="line"/>
			<point x="282" y="350" type="line"/>
			<point x="282" y="350" type="line"/>
			<point x="299" y="329" type="line"/>
			<point x="299" y="1" type="line"/>
			<point x="424" y="1" type="line"/>
			<point x="424" y="331" type="line"/>
			<point x="439" y="350" type="line"/>
			<point x="439" y="350" type="line"/>
			<point x="710" y="701" type="line"/>
		</contour>
		<contour>
			<point x="10" y="0" type="line"/>
			<point x="10" y="-2" type="line"/>
			<point x="12" y="0" type="line"/>
		</contour>
		<contour>
			<point x="709" y="0" type="line"/>
			<point x="710" y="-2" type="line"/>
			<point x="710" y="0" type="line"/>
		</contour>
	</outline>
</glyph>
<glyph name="Z" format="2">
	<advance width="800"/>
	<unicode hex="005A"/>
	<note>
		Z
	</note>
	<outline>
		<contour>
			<point x="753" y="126" type="line"/>
			<point x="306" y="126" type="line"/>
			<point x="400" y="247" type="line"/>
			<point x="479" y="349" type="line"/>
			<point x="653" y="575" type="line"/>
			<point x="750" y="700" type="line"/>
			<point x="750" y="700" type="line"/>
			<point x="593" y="700" type="line"/>
			<point x="593" y="700" type="line"/>
			<point x="52" y="700" type="line"/>
			<point x="52" y="575" type="line"/>
			<point x="497" y="575" type="line"/>
			<point x="401" y="451" type="line"/>
			<point x="322" y="349" type="line"/>
			<point x="150" y="126" type="line"/>
			<point x="54" y="1" type="line"/>
			<point x="53" y="0" type="line"/>
			<point x="211" y="0" type="line"/>
			<point x="212" y="1" type="line"/>
			<point x="753" y="1" type="line"/>
		</contour>
	</outline>
</glyph>
<glyph name="bracketleft" format="2">
	<advance width="352"/>
	<unicode hex="005B"/>
	<note>
		bracketleft
	</note>
	<outline>
		<contour>
			<point x="174" y="616" type="line"/>
			<point x="302" y="616" type="line"/>
			<point x="302" y="741" type="line"/>
			<point x="50" y="741" type="line"/>
			<point x="50" y="-159" type="line"/>
			<point x="302" y="-159" type="line"/>
			<point x="302" y="-34" type="line"/>
			<point x="174" y="-34" type="line"/>
		</contour>
	</outline>
</glyph>
<glyph name="backslash" format="2">
	<advance width="428"/>
	<unicode hex="005C"/>
	<note>
		backslash
	</note>
	<outline>
		<contour>
			<point x="378" y="-15" type="line"/>
			<point x="287" y="305" type="line"/>
			<point x="252" y="430" type="line"/>
			<point x="180" y="685" type="line"/>
			<point x="50" y="685" type="line"/>
			<point x="122" y="430" type="line"/>
			<point x="157" y="305" type="line"/>
			<point x="248" y="-15" type="line"/>
		</contour>
	</outline>
</glyph>
<glyph name="bracketright" format="2">
	<advance width="352"/>
	<unicode hex="005D"/>
	<note>
		bracketright
	</note>
	<outline>
		<contour>
			<point x="302" y="742" type="line"/>
			<point x="50" y="742" type="line"/>
			<point x="50" y="617" type="line"/>
			<point x="178" y="617" type="line"/>
			<point x="178" y="-33" type="line"/>
			<point x="50" y="-33" type="line"/>
			<point x="50" y="-158" type="line"/>
			<point x="302" y="-158" type="line"/>
		</contour>
	</outline>
</glyph>
<glyph name="underscore" format="2">
	<advance width="800"/>
	<unicode hex="005F"/>
	<note>
		underscore
	</note>
	<outline>
		<contour>
			<point x="50" y="-183" type="line"/>
			<point x="750" y="-183" type="line"/>
			<point x="750" y="-58" type="line"/>
			<point x="50" y="-58" type="line"/>
		</contour>
	</outline>
</glyph>
<glyph name="a" format="2">
	<advance width="734"/>
	<unicode hex="0061"/>
	<unicode hex="00E0"/>
	<unicode hex="00E1"/>
	<unicode hex="00E2"/>
	<unicode hex="00E3"/>
	<unicode hex="00E4"/>
	<unicode hex="00E5"/>
	<note>
		a
	</note>
	<outline>
		<contour>
			<point x="724" y="0" type="line"/>
			<point x="660" y="125" type="line"/>
			<point x="367" y="700" type="line"/>
			<point x="74" y="125" type="line"/>
			<point x="10" y="0" type="line"/>
			<point x="150" y="0" type="line"/>
			<point x="214" y="125" type="line"/>
			<point x="367" y="425" type="line"/>
			<point x="520" y="125" type="line"/>
			<point x="584" y="0" type="line"/>
		</contour>
	</outline>
</glyph>
<glyph name="b" format="2">
	<advance width="775"/>
	<unicode hex="0062"/>
	<note>
		b
	</note>
	<outline>
		<contour>
			<point x="650" y="409" type="curve"/>
			<point x="669" y="438"/>
			<point x="680" y="473"/>
			<point x="680" y="511" type="curve" smooth="yes"/>
			<point x="680" y="615"/>
			<point x="595" y="700"/>
			<point x="491" y="700" type="curve" smooth="yes"/>
			<point x="50" y="700" type="line"/>
			<point x="50" y="0" type="line"/>
			<point x="50" y="0" type="line"/>
			<point x="50" y="0" type="line"/>
			<point x="527" y="0" type="line" smooth="yes"/>
			<point x="650" y="0"/>
			<point x="750" y="100"/>
			<point x="750" y="223" type="curve" smooth="yes"/>
			<point x="750" y="301"/>
			<point x="710" y="369"/>
		</contour>
		<contour>
			<point x="175" y="447" type="line"/>
			<point x="175" y="575" type="line"/>
			<point x="492" y="575" type="line" smooth="yes"/>
			<point x="527" y="575"/>
			<point x="556" y="546"/>
			<point x="556" y="511" type="curve" smooth="yes"/>
			<point x="556" y="476"/>
			<point x="527" y="447"/>
			<point x="492" y="447" type="curve" smooth="yes"/>
		</contour>
		<contour>
			<point x="527" y="126" type="curve"/>
			<point x="527" y="125" type="line"/>
			<point x="175" y="125" type="line"/>
			<point x="175" y="322" type="line"/>
			<point x="527" y="322" type="line" smooth="yes"/>
			<point x="581" y="322"/>
			<point x="625" y="278"/>
			<point x="625" y="224" type="curve" smooth="yes"/>
			<point x="625" y="170"/>
			<point x="581" y="126"/>
		</contour>
	</outline>
</glyph>
<glyph name="d" format="2">
	<advance width="800"/>
	<unicode hex="0064"/>
	<note>
		d
	</note>
	<outline>
		<contour>
			<point x="399" y="699" type="curve"/>
			<point x="400" y="700" type="line"/>
			<point x="50" y="700" type="line"/>
			<point x="50" y="0" type="line"/>
			<point x="400" y="0" type="line" smooth="yes"/>
			<point x="496" y="0"/>
			<point x="583" y="39"/>
			<point x="646" y="103" type="curve" smooth="yes"/>
			<point x="653" y="110"/>
			<point x="660" y="117"/>
			<point x="666" y="124" type="curve" smooth="yes"/>
			<point x="718" y="185"/>
			<point x="749" y="264"/>
			<point x="749" y="350" type="curve" smooth="yes"/>
			<point x="749" y="543"/>
			<point x="592" y="699"/>
		</contour>
		<contour>
			<point x="399" y="124" type="curve" smooth="yes"/>
			<point x="174" y="124" type="line"/>
			<point x="174" y="574" type="line"/>
			<point x="399" y="574" type="line" smooth="yes"/>
			<point x="523" y="574"/>
			<point x="624" y="473"/>
			<point x="624" y="349" type="curve" smooth="yes"/>
			<point x="624" y="225"/>
			<point x="523" y="124"/>
		</contour>
	</outline>
</glyph>
<glyph name="e" format="2">
	<advance width="800"/>
	<unicode hex="0065"/>
	<unicode hex="00E8"/>
	<unicode hex="00E9"/>
	<unicode hex="00EA"/>
	<unicode hex="00EB"/>
	<note>
		e
	</note>
	<outline>
		<contour>
			<point x="239" y="575" type="curve" smooth="yes"/>
			<point x="750" y="575" type="line"/>
			<point x="750" y="700" type="line"/>
			<point x="239" y="700" type="line" smooth="yes"/>
			<point x="135" y="700"/>
			<point x="51" y="615"/>
			<point x="51" y="511" type="curve" smooth="yes"/>
			<point x="51" y="189" type="line" smooth="yes"/>
			<point x="51" y="85"/>
			<point x="135" y="0"/>
			<point x="239" y="0" type="curve" smooth="yes"/>
			<point x="750" y="0" type="line"/>
			<point x="750" y="125" type="line"/>
			<point x="239" y="125" type="line" smooth="yes"/>
			<point x="204" y="125"/>
			<point x="175" y="154"/>
			<point x="175" y="189" type="curve" smooth="yes"/>
			<point x="175" y="321" type="line"/>
			<point x="625" y="321" type="line"/>
			<point x="625" y="446" type="line"/>
			<point x="175" y="446" type="line"/>
			<point x="175" y="511" type="line" smooth="yes"/>
			<point x="175" y="546"/>
			<point x="204" y="575"/>
		</contour>
	</outline>
</glyph>
<glyph name="f" format="2">
	<advance width="800"/>
	<unicode hex="0066"/>
	<note>
		f
	</note>
	<outline>
		<contour>
			<point x="751" y="701" type="line"/>
			<point x="239" y="700" type="line" smooth="yes"/>
			<point x="135" y="700"/>
			<point x="51" y="615"/>
			<point x="51" y="511" type="curve" smooth="yes"/>
			<point x="51" y="1" type="line"/>
			<point x="175" y="1" type="line"/>
			<point x="175" y="322" type="line"/>
			<point x="626" y="322" type="line"/>
			<point x="626" y="447" type="line"/>
			<point x="176" y="447" type="line"/>
			<point x="176" y="512" type="line" smooth="yes"/>
			<point x="176" y="547"/>
			<point x="205" y="576"/>
			<point x="240" y="576" type="curve" smooth="yes"/>
			<point x="751" y="576" type="line"/>
		</contour>
	</outline>
</glyph>
<glyph name="i" format="2">
	<advance width="225"/>
	<unicode hex="0069"/>
	<unicode hex="00EC"/>
	<unicode hex="00ED"/>
	<unicode hex="00EE"/>
	<unicode hex="00EF"/>
	<note>
		i
	</note>
	<outline>
		<contour>
			<point x="50" y="0" type="line"/>
			<point x="175" y="0" type="line"/>
			<point x="175" y="700" type="line"/>
			<point x="50" y="700" type="line"/>
		</contour>
	</outline>
</glyph>
<glyph name="j" format="2">
	<advance width="800"/>
	<unicode hex="006A"/>
	<note>
		j
	</note>
	<outline>
		<contour>
			<point x="750" y="700" type="line"/>
			<point x="625" y="700" type="line"/>
			<point x="625" y="189" type="line" smooth="yes"/>
			<point x="625" y="154"/>
			<point x="596" y="125"/>
			<point x="561" y="125" type="curve" smooth="yes"/>
			<point x="239" y="125" type="line" smooth="yes"/>
			<point x="204" y="125"/>
			<point x="175" y="154"/>
			<point x="175" y="189" type="curve" smooth="yes"/>
			<point x="175" y="320" type="line"/>
			<point x="50" y="320" type="line"/>
			<point x="50" y="189" type="line" smooth="yes"/>
			<point x="50" y="85"/>
			<point x="135" y="1"/>
			<point x="239" y="1" type="curve" smooth="yes"/>
			<point x="561" y="1" type="line" smooth="yes"/>
			<point x="665" y="1"/>
			<point x="750" y="85"/>
			<point x="750" y="189" type="curve" smooth="yes"/>
		</contour>
	</outline>
</glyph>
<glyph name="k" format="2">
	<advance width="800"/>
	<unicode hex="006B"/>
	<note>
		k
	</note>
	<outline>
		<contour>
			<point x="444" y="419" type="line"/>
			<point x="750" y="700" type="line"/>
			<point x="565" y="700" type="line"/>
			<point x="370" y="521" type="line"/>
			<point x="277" y="436" type="line"/>
			<point x="174" y="342" type="line"/>
			<point x="174" y="700" type="line"/>
			<point x="49" y="700" type="line"/>
			<point x="49" y="0" type="line"/>
			<point x="174" y="0" type="line"/>
			<point x="174" y="173" type="line"/>
			<point x="351" y="334" type="line"/>
			<point x="593" y="0" type="line"/>
			<point x="747" y="0" type="line"/>
		</contour>
	</outline>
</glyph>
<glyph name="o" format="2">
	<advance width="752"/>
	<unicode hex="006F"/>
	<unicode hex="00F2"/>
	<unicode hex="00F3"/>
	<unicode hex="00F4"/>
	<unicode hex="00F5"/>
	<unicode hex="00F6"/>
	<unicode hex="00F8"/>
	<note>
		o
	</note>
	<outline>
		<contour>
			<point x="376" y="700" type="curve" smooth="yes"/>
			<point x="183" y="700"/>
			<point x="26" y="543"/>
			<point x="26" y="350" type="curve" smooth="yes"/>
			<point x="26" y="157"/>
			<point x="183" y="0"/>
			<point x="376" y="0" type="curve" smooth="yes"/>
			<point x="569" y="0"/>
			<point x="726" y="157"/>
			<point x="726" y="350" type="curve" smooth="yes"/>
			<point x="726" y="543"/>
			<point x="569" y="700"/>
		</contour>
		<contour>
			<point x="376" y="125" type="curve" smooth="yes"/>
			<point x="252" y="125"/>
			<point x="151" y="226"/>
			<point x="151" y="350" type="curve" smooth="yes"/>
			<point x="151" y="474"/>
			<point x="252" y="575"/>
			<point x="376" y="575" type="curve" smooth="yes"/>
			<point x="500" y="575"/>
			<point x="601" y="474"/>
			<point x="601" y="350" type="curve" smooth="yes"/>
			<point x="601" y="226"/>
			<point x="500" y="125"/>
		</contour>
	</outline>
</glyph>
<glyph name="p" format="2">
	<advance width="730"/>
	<unicode hex="0070"/>
	<note>
		p
	</note>
	<outline>
		<contour>
			<point x="626" y="644" type="curve" smooth="yes"/>
			<point x="625" y="645" type="line" smooth="yes"/>
			<point x="591" y="679"/>
			<point x="544" y="700"/>
			<point x="492" y="700" type="curve" smooth="yes"/>
			<point x="51" y="700" type="line"/>
			<point x="51" y="700" type="line"/>
			<point x="51" y="700" type="line"/>
			<point x="51" y="0" type="line"/>
			<point x="176" y="0" type="line"/>
			<point x="176" y="322" type="line"/>
			<point x="511" y="322" type="line"/>
			<point x="511" y="323" type="line"/>
			<point x="513" y="323"/>
			<point x="515" y="323"/>
			<point x="517" y="323" type="curve" smooth="yes"/>
			<point x="536" y="325"/>
			<point x="554" y="330"/>
			<point x="571" y="338" type="curve" smooth="yes"/>
			<point x="636" y="368"/>
			<point x="681" y="434"/>
			<point x="681" y="510" type="curve" smooth="yes"/>
			<point x="681" y="562"/>
			<point x="660" y="609"/>
		</contour>
		<contour>
			<point x="519" y="453" type="curve"/>
			<point x="519" y="452" type="line"/>
			<point x="511" y="448"/>
			<point x="502" y="446"/>
			<point x="493" y="446" type="curve" smooth="yes"/>
			<point x="176" y="446" type="line"/>
			<point x="176" y="575" type="line"/>
			<point x="493" y="575" type="line" smooth="yes"/>
			<point x="515" y="575"/>
			<point x="530" y="565"/>
			<point x="538" y="557" type="curve" smooth="yes"/>
			<point x="545" y="550"/>
			<point x="557" y="534"/>
			<point x="557" y="511" type="curve" smooth="yes"/>
			<point x="557" y="486"/>
			<point x="542" y="463"/>
		</contour>
	</outline>
</glyph>
<glyph name="r" format="2">
	<advance width="730"/>
	<unicode hex="0072"/>
	<note>
		r
	</note>
	<outline>
		<contour>
			<point x="615" y="123" type="line"/>
			<point x="515" y="323" type="line"/>
			<point x="515" y="323"/>
			<point x="515" y="323"/>
			<point x="515" y="323" type="curve"/>
			<point x="534" y="325"/>
			<point x="552" y="330"/>
			<point x="569" y="338" type="curve" smooth="yes"/>
			<point x="634" y="368"/>
			<point x="679" y="434"/>
			<point x="679" y="510" type="curve" smooth="yes"/>
			<point x="679" y="562"/>
			<point x="658" y="609"/>
			<point x="624" y="643" type="curve" smooth="yes"/>
			<point x="590" y="677"/>
			<point x="543" y="698"/>
			<point x="491" y="698" type="curve" smooth="yes"/>
			<point x="49" y="698" type="line"/>
			<point x="49" y="-2" type="line"/>
			<point x="174" y="-2" type="line"/>
			<point x="174" y="320" type="line"/>
			<point x="299" y="320" type="line" smooth="yes"/>
			<point x="344" y="320"/>
			<point x="383" y="296"/>
			<point x="405" y="260" type="curve" smooth="yes"/>
			<point x="408" y="254" type="line"/>
			<point x="475" y="123" type="line"/>
			<point x="539" y="-2" type="line"/>
			<point x="679" y="-2" type="line"/>
		</contour>
		<contour>
			<point x="491" y="445" type="curve" smooth="yes"/>
			<point x="174" y="444" type="line"/>
			<point x="174" y="573" type="line"/>
			<point x="491" y="573" type="line" smooth="yes"/>
			<point x="513" y="573"/>
			<point x="528" y="563"/>
			<point x="536" y="555" type="curve" smooth="yes"/>
			<point x="543" y="548"/>
			<point x="555" y="532"/>
			<point x="555" y="509" type="curve" smooth="yes"/>
			<point x="555" y="484"/>
			<point x="540" y="461"/>
			<point x="517" y="451" type="curve" smooth="yes"/>
			<point x="509" y="447"/>
			<point x="500" y="445"/>
		</contour>
	</outline>
</glyph>
<glyph name="s" format="2">
	<advance width="762"/>
	<unicode hex="0073"/>
	<unicode hex="00DF"/>
	<note>
		s
	</note>
	<outline>
		<contour>
			<point x="587" y="506" type="line"/>
			<point x="712" y="507" type="line"/>
			<point x="712" y="511" type="line" smooth="yes"/>
			<point x="712" y="615"/>
			<point x="627" y="700"/>
			<point x="523" y="700" type="curve" smooth="yes"/>
			<point x="239" y="700" type="line" smooth="yes"/>
			<point x="135" y="700"/>
			<point x="51" y="615"/>
			<point x="51" y="511" type="curve" smooth="yes"/>
			<point x="51" y="507" type="line" smooth="yes"/>
			<point x="51" y="467"/>
			<point x="63" y="430"/>
			<point x="84" y="400" type="curve" smooth="yes"/>
			<point x="91" y="389"/>
			<point x="99" y="379"/>
			<point x="108" y="370" type="curve" smooth="yes"/>
			<point x="142" y="337"/>
			<point x="188" y="317"/>
			<point x="239" y="317" type="curve" smooth="yes"/>
			<point x="491" y="317" type="line" smooth="yes"/>
			<point x="544" y="317"/>
			<point x="588" y="274"/>
			<point x="588" y="221" type="curve" smooth="yes"/>
			<point x="588" y="168"/>
			<point x="544" y="125"/>
			<point x="491" y="125" type="curve" smooth="yes"/>
			<point x="272" y="125" type="line" smooth="yes"/>
			<point x="219" y="125"/>
			<point x="176" y="168"/>
			<point x="176" y="221" type="curve"/>
			<point x="51" y="221" type="line"/>
			<point x="51" y="99"/>
			<point x="150" y="0"/>
			<point x="272" y="0" type="curve" smooth="yes"/>
			<point x="491" y="0" type="line" smooth="yes"/>
			<point x="613" y="0"/>
			<point x="712" y="99"/>
			<point x="712" y="221" type="curve" smooth="yes"/>
			<point x="712" y="274"/>
			<point x="693" y="323"/>
			<point x="662" y="361" type="curve" smooth="yes"/>
			<point x="659" y="364"/>
			<point x="657" y="367"/>
			<point x="654" y="370" type="curve" smooth="yes"/>
			<point x="614" y="414"/>
			<point x="556" y="442"/>
			<point x="491" y="442" type="curve" smooth="yes"/>
			<point x="239" y="442" type="line" smooth="yes"/>
			<point x="204" y="442"/>
			<point x="175" y="471"/>
			<point x="175" y="506" type="curve" smooth="yes"/>
			<point x="175" y="510" type="line" smooth="yes"/>
			<point x="175" y="545"/>
			<point x="204" y="574"/>
			<point x="239" y="574" type="curve" smooth="yes"/>
			<point x="523" y="574" type="line" smooth="yes"/>
			<point x="558" y="574"/>
			<point x="587" y="545"/>
			<point x="587" y="510" type="curve" smooth="yes"/>
		</contour>
	</outline>
</glyph>
<glyph name="u" format="2">
	<advance width="800"/>
	<unicode hex="0075"/>
	<unicode hex="00F9"/>
	<unicode hex="00FA"/>
	<unicode hex="00FB"/>
	<unicode hex="00FC"/>
	<note>
		u
	</note>
	<outline>
		<contour>
			<point x="750" y="700" type="line"/>
			<point x="625" y="700" type="line"/>
			<point x="625" y="350" type="line" smooth="yes"/>
			<point x="625" y="226"/>
			<point x="524" y="125"/>
			<point x="400" y="125" type="curve" smooth="yes"/>
			<point x="276" y="125"/>
			<point x="175" y="226"/>
			<point x="175" y="350" type="curve" smooth="yes"/>
			<point x="175" y="700" type="line"/>
			<point x="50" y="700" type="line"/>
			<point x="50" y="350" type="line" smooth="yes"/>
			<point x="50" y="157"/>
			<point x="207" y="0"/>
			<point x="400" y="0" type="curve" smooth="yes"/>
			<point x="593" y="0"/>
			<point x="750" y="157"/>
			<point x="750" y="350" type="curve" smooth="yes"/>
		</contour>
	</outline>
</glyph>
<glyph name="v" format="2">
	<advance width="734"/>
	<unicode hex="0076"/>
	<note>
		v
	</note>
	<outline>
		<contour>
			<point x="723" y="700" type="line"/>
			<point x="583" y="700" type="line"/>
			<point x="519" y="575" type="line"/>
			<point x="366" y="275" type="line"/>
			<point x="213" y="575" type="line"/>
			<point x="149" y="700" type="line"/>
			<point x="9" y="700" type="line"/>
			<point x="73" y="575" type="line"/>
			<point x="366" y="0" type="line"/>
			<point x="659" y="575" type="line"/>
		</contour>
	</outline>
</glyph>
<glyph name="x" format="2">
	<advance width="750"/>
	<unicode hex="0078"/>
	<note>
		x
	</note>
	<outline>
		<contour>
			<point x="25" y="-1" type="line"/>
			<point x="25" y="-3" type="line"/>
			<point x="27" y="-1" type="line"/>
		</contour>
		<contour>
			<point x="725" y="-3" type="line"/>
			<point x="725" y="-1" type="line"/>
			<point x="724" y="-1" type="line"/>
		</contour>
		<contour>
			<point x="727" y="699" type="line"/>
			<point x="725" y="699" type="line"/>
			<point x="568" y="699" type="line"/>
			<point x="376" y="450" type="line"/>
			<point x="184" y="699" type="line"/>
			<point x="26" y="699" type="line"/>
			<point x="297" y="348" type="line"/>
			<point x="28" y="-1" type="line"/>
			<point x="186" y="-1" type="line"/>
			<point x="377" y="246" type="line"/>
			<point x="568" y="-1" type="line"/>
			<point x="726" y="-1" type="line"/>
			<point x="456" y="348" type="line"/>
		</contour>
	</outline>
</glyph>
<glyph name="y" format="2">
	<advance width="800"/>
	<unicode hex="0079"/>
	<unicode hex="00FD"/>
	<unicode hex="00FF"/>
	<note>
		y
	</note>
	<outline>
		<contour>
			<point x="749" y="701" type="line"/>
			<point x="592" y="701" type="line"/>
			<point x="400" y="452" type="line"/>
			<point x="208" y="701" type="line"/>
			<point x="50" y="701" type="line"/>
			<point x="321" y="350" type="line"/>
			<point x="321" y="350" type="line"/>
			<point x="338" y="329" type="line"/>
			<point x="338" y="1" type="line"/>
			<point x="463" y="1" type="line"/>
			<point x="463" y="331" type="line"/>
			<point x="478" y="350" type="line"/>
			<point x="478" y="350" type="line"/>
			<point x="749" y="701" type="line"/>
		</contour>
		<contour>
			<point x="49" y="0" type="line"/>
			<point x="49" y="-2" type="line"/>
			<point x="51" y="0" type="line"/>
		</contour>
		<contour>
			<point x="748" y="0" type="line"/>
			<point x="749" y="-2" type="line"/>
			<point x="749" y="0" type="line"/>
		</contour>
	</outline>
</glyph>
<glyph name="z" format="2">
	<advance width="800"/>
	<unicode hex="007A"/>
	<note>
		z
	</note>
	<outline>
		<contour>
			<point x="753" y="125" type="line"/>
			<point x="306" y="125" type="line"/>
			<point x="400" y="246" type="line"/>
			<point x="479" y="348" type="line"/>
			<point x="653" y="574" type="line"/>
			<point x="750" y="699" type="line"/>
			<point x="750" y="699" type="line"/>
			<point x="593" y="699" type="line"/>
			<point x="593" y="699" type="line"/>
			<point x="52" y="699" type="line"/>
			<point x="52" y="574" type="line"/>
			<point x="497" y="574" type="line"/>
			<point x="401" y="450" type="line"/>
			<point x="322" y="348" type="line"/>
			<point x="150" y="125" type="line"/>
			<point x="54" y="0" type="line"/>
			<point x="53" y="-1" type="line"/>
			<point x="211" y="-1" type="line"/>
			<point x="212" y="0" type="line"/>
			<point x="753" y="0" type="line"/>
		</contour>
	</outline>
</glyph>
<glyph name="braceleft" format="2">
	<advance width="381"/>
	<unicode hex="007B"/>
	<note>
		braceleft
	</note>
	<outline>
		<contour>
			<point x="331" y="-31" type="line"/>
			<point x="274" y="-32" type="line" smooth="yes"/>
			<point x="264" y="-32"/>
			<point x="255" y="-25"/>
			<point x="253" y="-15" type="curve"/>
			<point x="253" y="209" type="line" smooth="yes"/>
			<point x="253" y="216"/>
			<point x="253" y="223"/>
			<point x="252" y="230" type="curve" smooth="yes"/>
			<point x="249" y="253"/>
			<point x="240" y="274"/>
			<point x="227" y="292" type="curve"/>
			<point x="240" y="310"/>
			<point x="249" y="331"/>
			<point x="252" y="354" type="curve" smooth="yes"/>
			<point x="253" y="361"/>
			<point x="253" y="368"/>
			<point x="253" y="375" type="curve" smooth="yes"/>
			<point x="253" y="599" type="line"/>
			<point x="255" y="609"/>
			<point x="264" y="616"/>
			<point x="274" y="616" type="curve" smooth="yes"/>
			<point x="331" y="616" type="line"/>
			<point x="331" y="741" type="line"/>
			<point x="274" y="741" type="line" smooth="yes"/>
			<point x="267" y="741"/>
			<point x="260" y="741"/>
			<point x="253" y="740" type="curve" smooth="yes"/>
			<point x="182" y="730"/>
			<point x="128" y="669"/>
			<point x="128" y="595" type="curve" smooth="yes"/>
			<point x="128" y="372" type="line"/>
			<point x="126" y="362"/>
			<point x="117" y="355"/>
			<point x="107" y="355" type="curve" smooth="yes"/>
			<point x="50" y="355" type="line"/>
			<point x="50" y="230" type="line"/>
			<point x="107" y="230" type="line" smooth="yes"/>
			<point x="117" y="230"/>
			<point x="126" y="223"/>
			<point x="128" y="213" type="curve"/>
			<point x="128" y="-10" type="line" smooth="yes"/>
			<point x="128" y="-84"/>
			<point x="182" y="-145"/>
			<point x="253" y="-155" type="curve" smooth="yes"/>
			<point x="260" y="-156"/>
			<point x="267" y="-156"/>
			<point x="274" y="-156" type="curve" smooth="yes"/>
			<point x="331" y="-156" type="line"/>
		</contour>
	</outline>
</glyph>
<glyph name="braceright" format="2">
	<advance width="381"/>
	<unicode hex="007D"/>
	<note>
		braceright
	</note>
	<outline>
		<contour>
			<point x="331" y="363" type="line"/>
			<point x="274" y="365" type="line" smooth="yes"/>
			<point x="264" y="365"/>
			<point x="255" y="372"/>
			<point x="253" y="382" type="curve"/>
			<point x="253" y="605" type="line" smooth="yes"/>
			<point x="253" y="679"/>
			<point x="199" y="740"/>
			<point x="128" y="750" type="curve" smooth="yes"/>
			<point x="121" y="751"/>
			<point x="114" y="751"/>
			<point x="107" y="751" type="curve" smooth="yes"/>
			<point x="50" y="751" type="line"/>
			<point x="50" y="626" type="line"/>
			<point x="107" y="626" type="line" smooth="yes"/>
			<point x="117" y="626"/>
			<point x="126" y="619"/>
			<point x="128" y="609" type="curve"/>
			<point x="128" y="385" type="line" smooth="yes"/>
			<point x="128" y="378"/>
			<point x="128" y="371"/>
			<point x="129" y="364" type="curve" smooth="yes"/>
			<point x="132" y="341"/>
			<point x="141" y="320"/>
			<point x="154" y="302" type="curve"/>
			<point x="141" y="284"/>
			<point x="132" y="263"/>
			<point x="129" y="240" type="curve" smooth="yes"/>
			<point x="128" y="233"/>
			<point x="128" y="226"/>
			<point x="128" y="219" type="curve" smooth="yes"/>
			<point x="128" y="-5" type="line"/>
			<point x="126" y="-15"/>
			<point x="117" y="-22"/>
			<point x="107" y="-22" type="curve" smooth="yes"/>
			<point x="50" y="-22" type="line"/>
			<point x="50" y="-147" type="line"/>
			<point x="107" y="-147" type="line" smooth="yes"/>
			<point x="114" y="-147"/>
			<point x="121" y="-147"/>
			<point x="128" y="-146" type="curve" smooth="yes"/>
			<point x="199" y="-136"/>
			<point x="253" y="-75"/>
			<point x="253" y="-1" type="curve" smooth="yes"/>
			<point x="253" y="222" type="line"/>
			<point x="255" y="232"/>
			<point x="264" y="239"/>
			<point x="274" y="239" type="curve" smooth="yes"/>
			<point x="331" y="239" type="line"/>
			<point x="331" y="250" type="line"/>
		</contour>
	</outline>
</glyph>
<glyph name="asciitilde" format="2">
	<advance width="591"/>
	<unicode hex="007E"/>
	<note>
		asciitilde
	</note>
	<outline>
		<contour>
			<point x="329" y="376" type="curve"/>
			<point x="331" y="376" type="line"/>
			<point x="319" y="382"/>
			<point x="307" y="387"/>
			<point x="296" y="391" type="curve"/>
			<point x="296" y="391" type="line"/>
			<point x="296" y="391"/>
			<point x="296" y="391"/>
			<point x="296" y="391" type="curve"/>
			<point x="256" y="406"/>
			<point x="221" y="413"/>
			<point x="189" y="412" type="curve" smooth="yes"/>
			<point x="136" y="411"/>
			<point x="92" y="391"/>
			<point x="50" y="357" type="curve"/>
			<point x="50" y="234" type="line"/>
			<point x="50" y="234"/>
			<point x="50" y="234"/>
			<point x="50" y="234" type="curve"/>
			<point x="50" y="234" type="line"/>
			<point x="105" y="270"/>
			<point x="139" y="293"/>
			<point x="178" y="295" type="curve" smooth="yes"/>
			<point x="201" y="296"/>
			<point x="226" y="290"/>
			<point x="259" y="275" type="curve" smooth="yes"/>
			<point x="271" y="269"/>
			<point x="283" y="264"/>
			<point x="294" y="260" type="curve"/>
			<point x="294" y="260" type="line"/>
			<point x="294" y="260"/>
			<point x="294" y="260"/>
			<point x="294" y="260" type="curve"/>
			<point x="399" y="220"/>
			<point x="473" y="240"/>
			<point x="539" y="294" type="curve"/>
			<point x="539" y="417" type="line"/>
			<point x="451" y="360"/>
			<point x="416" y="335"/>
		</contour>
	</outline>
</glyph>
<glyph name="sterling" format="2">
	<advance width="753"/>
	<unicode hex="00A3"/>
	<note>
		sterling
	</note>
	<outline>
		<contour>
			<point x="578" y="406" type="line"/>
			<point x="703" y="406" type="line"/>
			<point x="703" y="495" type="line" smooth="yes"/>
			<point x="703" y="517"/>
			<point x="699" y="539"/>
			<point x="692" y="559" type="curve" smooth="yes"/>
			<point x="666" y="632"/>
			<point x="596" y="684"/>
			<point x="514" y="684" type="curve" smooth="yes"/>
			<point x="366" y="684" type="line" smooth="yes"/>
			<point x="284" y="684"/>
			<point x="214" y="632"/>
			<point x="188" y="559" type="curve" smooth="yes"/>
			<point x="181" y="539"/>
			<point x="177" y="517"/>
			<point x="177" y="495" type="curve" smooth="yes"/>
			<point x="177" y="406" type="line"/>
			<point x="51" y="406" type="line"/>
			<point x="51" y="281" type="line"/>
			<point x="177" y="281" type="line"/>
			<point x="177" y="-16" type="line"/>
			<point x="704" y="-16" type="line"/>
			<point x="704" y="109" type="line"/>
			<point x="302" y="109" type="line"/>
			<point x="302" y="281" type="line"/>
			<point x="527" y="281" type="line"/>
			<point x="527" y="406" type="line"/>
			<point x="302" y="406" type="line"/>
			<point x="302" y="495" type="line" smooth="yes"/>
			<point x="302" y="530"/>
			<point x="331" y="559"/>
			<point x="366" y="559" type="curve" smooth="yes"/>
			<point x="514" y="559" type="line" smooth="yes"/>
			<point x="549" y="559"/>
			<point x="578" y="530"/>
			<point x="578" y="495" type="curve" smooth="yes"/>
		</contour>
	</outline>
</glyph>
<glyph name="multiply" format="2">
	<advance width="524"/>
	<unicode hex="00D7"/>
	<note>
		multiply
	</note>
	<outline>
		<contour>
			<point x="349" y="330" type="line"/>
			<point x="474" y="454" type="line"/>
			<point x="386" y="542" type="line"/>
			<point x="262" y="418" type="line"/>
			<point x="138" y="542" type="line"/>
			<point x="50" y="454" type="line"/>
			<point x="174" y="330" type="line"/>
			<point x="50" y="206" type="line"/>
			<point x="138" y="118" type="line"/>
			<point x="262" y="242" type="line"/>
			<point x="385" y="118" type="line"/>
			<point x="473" y="206" type="line"/>
		</contour>
	</outline>
</glyph>
<glyph name="eacute" format="2">
	<advance width="800"/>
	<unicode hex="00E9"/>
	<outline>
		<contour>
			<point x="239" y="575" type="curve" smooth="yes"/>
			<point x="750" y="575" type="line"/>
			<point x="750" y="700" type="line"/>
			<point x="239" y="700" type="line" smooth="yes"/>
			<point x="135" y="700"/>
			<point x="51" y="615"/>
			<point x="51" y="511" type="curve" smooth="yes"/>
			<point x="51" y="189" type="line" smooth="yes"/>
			<point x="51" y="85"/>
			<point x="135" y="0"/>
			<point x="239" y="0" type="curve" smooth="yes"/>
			<point x="750" y="0" type="line"/>
			<point x="750" y="125" type="line"/>
			<point x="239" y="125" type="line" smooth="yes"/>
			<point x="204" y="125"/>
			<point x="175" y="154"/>
			<point x="175" y="189" type="curve" smooth="yes"/>
			<point x="175" y="321" type="line"/>
			<point x="625" y="321" type="line"/>
			<point x="625" y="446" type="line"/>
			<point x="175" y="446" type="line"/>
			<point x="175" y="511" type="line" smooth="yes"/>
			<point x="175" y="546"/>
			<point x="204" y="575"/>
		</contour>
		<contour>
			<point x="313" y="791" type="line"/>
			<point x="490" y="947" type="line"/>
			<point x="658" y="947" type="line"/>
			<point x="452" y="791" type="line"/>
		</contour>
	</outline>
</glyph>
<glyph name="divide" format="2">
	<advance width="574"/>
	<unicode hex="00F7"/>
	<note>
		divide
	</note>
	<outline>
		<contour>
			<point x="50" y="268" type="line"/>
			<point x="524" y="268" type="line"/>
			<point x="524" y="393" type="line"/>
			<point x="50" y="393" type="line"/>
		</contour>
		<contour>
			<point x="225" y="443" type="line"/>
			<point x="350" y="443" type="line"/>
			<point x="350" y="568" type="line"/>
			<point x="225" y="568" type="line"/>
		</contour>
		<contour>
			<point x="225" y="94" type="line"/>
			<point x="350" y="94" type="line"/>
			<point x="350" y="219" type="line"/>
			<point x="225" y="219" type="line"/>
		</contour>
	</outline>
</glyph>
<glyph name="quoteleft" format="2">
	<advance width="225"/>
	<unicode hex="2018"/>
	<note>
		quoteleft
	</note>
	<outline>
		<contour>
			<point x="176" y="625" type="line"/>
			<point x="175" y="625" type="line"/>
			<point x="113" y="750" type="line"/>
			<point x="51" y="750" type="line"/>
			<point x="51" y="500" type="line"/>
			<point x="176" y="500" type="line"/>
		</contour>
	</outline>
</glyph>
<glyph name="quoteright" format="2">
	<advance width="225"/>
	<unicode hex="2019"/>
	<note>
		quoteright
	</note>
	<outline>
		<contour>
			<point x="174" y="750" type="line"/>
			<point x="50" y="750" type="line"/>
			<point x="50" y="625" type="line"/>
			<point x="50" y="625" type="line"/>
			<point x="112" y="500" type="line"/>
			<point x="174" y="500" type="line"/>
		</contour>
	</outline>
</glyph>
<glyph name="quotedblleft" format="2">
	<advance width="384"/>
	<unicode hex="201C"/>
	<note>
		quotedblleft
	</note>
	<outline>
		<contour>
			<point x="335" y="624" type="line"/>
			<point x="334" y="624" type="line"/>
			<point x="272" y="749" type="line"/>
			<point x="210" y="749" type="line"/>
			<point x="210" y="499" type="line"/>
			<point x="335" y="499" type="line"/>
		</contour>
		<contour>
			<point x="176" y="624" type="line"/>
			<point x="113" y="749" type="line"/>
			<point x="51" y="749" type="line"/>
			<point x="51" y="499" type="line"/>
			<point x="176" y="499" type="line"/>
			<point x="176" y="624" type="line"/>
		</contour>
	</outline>
</glyph>
<glyph name="quotedblright" format="2">
	<advance width="384"/>
	<unicode hex="201D"/>
	<note>
		quotedblright
	</note>
	<outline>
		<contour>
			<point x="49" y="749" type="line"/>
			<point x="50" y="624" type="line"/>
			<point x="50" y="624" type="line"/>
			<point x="112" y="499" type="line"/>
			<point x="174" y="499" type="line"/>
			<point x="174" y="749" type="line"/>
		</contour>
		<contour>
			<point x="333" y="749" type="line"/>
			<point x="209" y="749" type="line"/>
			<point x="209" y="624" type="line"/>
			<point x="209" y="624" type="line"/>
			<point x="271" y="499" type="line"/>
			<point x="333" y="499" type="line"/>
		</contour>
	</outline>
</glyph>
<glyph name="Euro" format="2">
	<advance width="770"/>
	<unicode hex="20AC"/>
	<note>
		Euro
	</note>
	<outline>
		<contour>
			<point x="498" y="560" type="curve" smooth="yes"/>
			<point x="720" y="560" type="line"/>
			<point x="720" y="685" type="line"/>
			<point x="498" y="685" type="line" smooth="yes"/>
			<point x="363" y="685"/>
			<point x="246" y="608"/>
			<point x="188" y="496" type="curve"/>
			<point x="51" y="496" type="line"/>
			<point x="51" y="371" type="line"/>
			<point x="150" y="371" type="line"/>
			<point x="150" y="371"/>
			<point x="150" y="371"/>
			<point x="150" y="371" type="curve"/>
			<point x="149" y="359"/>
			<point x="149" y="347"/>
			<point x="149" y="335" type="curve" smooth="yes"/>
			<point x="149" y="326"/>
			<point x="149" y="317"/>
			<point x="149" y="308" type="curve"/>
			<point x="51" y="308" type="line"/>
			<point x="51" y="183" type="line"/>
			<point x="183" y="183" type="line"/>
			<point x="183" y="183"/>
			<point x="183" y="183"/>
			<point x="183" y="183" type="curve"/>
			<point x="239" y="65"/>
			<point x="359" y="-16"/>
			<point x="498" y="-16" type="curve" smooth="yes"/>
			<point x="720" y="-16" type="line"/>
			<point x="720" y="109" type="line"/>
			<point x="498" y="109" type="line" smooth="yes"/>
			<point x="432" y="109"/>
			<point x="373" y="138"/>
			<point x="332" y="183" type="curve"/>
			<point x="332" y="183"/>
			<point x="332" y="183"/>
			<point x="332" y="183" type="curve"/>
			<point x="600" y="183" type="line"/>
			<point x="600" y="308" type="line"/>
			<point x="274" y="308" type="line"/>
			<point x="273" y="317"/>
			<point x="273" y="326"/>
			<point x="273" y="335" type="curve" smooth="yes"/>
			<point x="273" y="347"/>
			<point x="274" y="359"/>
			<point x="276" y="371" type="curve"/>
			<point x="276" y="371"/>
			<point x="276" y="371"/>
			<point x="276" y="371" type="curve"/>
			<point x="600" y="371" type="line"/>
			<point x="600" y="496" type="line"/>
			<point x="340" y="496" type="line"/>
			<point x="381" y="536"/>
			<point x="437" y="560"/>
		</contour>
	</outline>
</glyph>
